<svg width="37" height="37" viewBox="0 0 37 37" fill="none" xmlns="http://www.w3.org/2000/svg">
<path d="M18.5 0C8.28313 0 0 8.28313 0 18.5C0 28.7169 8.28313 37 18.5 37C28.7169 37 37 28.7169 37 18.5C37 8.28313 28.7169 0 18.5 0ZM23.814 25.7934C23.007 26.7755 21.9564 27.4379 20.7307 27.7728C20.1977 27.9175 19.9541 28.1992 19.9846 28.7549C20.0074 29.3031 19.9846 29.8436 19.977 30.3918C19.977 30.879 19.7257 31.1379 19.2461 31.1531C18.934 31.1607 18.6218 31.1683 18.3097 31.1683C18.0356 31.1683 17.7615 31.1683 17.4874 31.1607C16.9698 31.1531 16.7261 30.8562 16.7261 30.3537C16.7185 29.9578 16.7185 29.5543 16.7185 29.1584C16.7109 28.2753 16.6805 28.2449 15.8354 28.1078C14.7543 27.9327 13.6885 27.6891 12.6988 27.2095C11.9222 26.8288 11.8385 26.6385 12.0593 25.8163C12.2267 25.2072 12.3942 24.5981 12.5846 23.9967C12.7216 23.5551 12.851 23.3572 13.087 23.3572C13.2241 23.3572 13.3992 23.4257 13.6352 23.5475C14.7315 24.1185 15.8963 24.4383 17.122 24.5905C17.3276 24.6134 17.5331 24.6286 17.7387 24.6286C18.3097 24.6286 18.8654 24.522 19.406 24.286C20.7687 23.6922 20.9819 22.1163 19.8323 21.1722C19.444 20.8525 18.9949 20.6165 18.5305 20.4109C17.3352 19.8856 16.0942 19.4897 14.9675 18.8121C13.1403 17.7158 11.9831 16.216 12.1202 13.993C12.2724 11.4807 13.6961 9.91234 16.0029 9.0749C16.9545 8.7323 16.9621 8.73992 16.9621 7.75021C16.9621 7.41523 16.9545 7.08025 16.9698 6.73765C16.9926 5.99156 17.1144 5.86214 17.8605 5.8393C17.9442 5.8393 18.0356 5.8393 18.1193 5.8393C18.264 5.8393 18.4086 5.8393 18.5533 5.8393C18.6142 5.8393 18.6751 5.8393 18.7284 5.8393C20.1444 5.8393 20.1444 5.90021 20.1521 7.43045C20.1597 8.5572 20.1597 8.5572 21.2788 8.7323C22.1391 8.86934 22.9537 9.12058 23.7455 9.47078C24.1794 9.66111 24.3469 9.96564 24.2099 10.43C24.0119 11.1152 23.8216 11.808 23.6084 12.4856C23.4714 12.8967 23.342 13.087 23.0984 13.087C22.9613 13.087 22.7938 13.0337 22.5807 12.9272C21.4844 12.3942 20.3348 12.1354 19.1319 12.1354C18.9796 12.1354 18.8198 12.143 18.6675 12.1506C18.3097 12.1735 17.9595 12.2191 17.6245 12.3638C16.4368 12.8815 16.2465 14.1909 17.2591 14.9979C17.7691 15.4091 18.3554 15.6984 18.9568 15.9496C20.0074 16.3835 21.058 16.8023 22.0554 17.3504C25.192 19.1014 26.0446 23.0831 23.814 25.7934Z" fill="url(#paint0_linear)"/>
<defs>
<linearGradient id="paint0_linear" x1="18.5" y1="0" x2="18.5" y2="37" gradientUnits="userSpaceOnUse">
<stop stop-color="#CBDFF5"/>
<stop offset="1" stop-color="#B8D1EC"/>
</linearGradient>
</defs>
</svg>
