<svg width="20" height="20" viewBox="0 0 20 20" fill="none" xmlns="http://www.w3.org/2000/svg">
<path d="M16.25 0H3.75C1.67969 0 0 1.67969 0 3.75V16.25C0 18.3203 1.67969 20 3.75 20H10.6771V12.2526H8.07292V9.23177H10.6771V7.00521C10.6771 4.42708 12.2656 3.02083 14.5703 3.02083C15.6641 3.02083 16.6146 3.09896 16.888 3.13802V5.83333L15.2995 5.84635C14.0365 5.84635 13.8021 6.43229 13.8021 7.30469V9.23177H16.7839L16.3932 12.2526H13.8021V20H16.25C18.3203 20 20 18.3203 20 16.25V3.75C20 1.67969 18.3203 0 16.25 0Z" fill="#516177"/>
</svg>
