<svg width="20" height="20" viewBox="0 0 20 20" fill="none" xmlns="http://www.w3.org/2000/svg">
<path d="M13.3331 10C13.3331 11.8358 11.8358 13.3331 10 13.3331C8.16421 13.3331 6.66694 11.8358 6.66694 10C6.66694 8.16421 8.16421 6.66694 10 6.66694C11.8358 6.66694 13.3331 8.16421 13.3331 10ZM15.1298 10C15.1298 7.16169 12.8383 4.87021 10 4.87021C7.16169 4.87021 4.87021 7.16169 4.87021 10C4.87021 12.8383 7.16169 15.1298 10 15.1298C12.8383 15.1298 15.1298 12.8383 15.1298 10ZM16.5359 4.66189C16.5359 3.99788 16.0021 3.46407 15.3381 3.46407C14.6741 3.46407 14.1403 3.99788 14.1403 4.66189C14.1403 5.3259 14.6741 5.85971 15.3381 5.85971C16.0021 5.85971 16.5359 5.3259 16.5359 4.66189ZM10 1.79754C11.4582 1.79754 14.583 1.68036 15.898 2.20115C16.3536 2.38343 16.6922 2.60477 17.0437 2.9563C17.3952 3.30784 17.6166 3.64635 17.7988 4.10204C18.3196 5.41704 18.2025 8.54179 18.2025 10C18.2025 11.4582 18.3196 14.583 17.7988 15.898C17.6166 16.3536 17.3952 16.6922 17.0437 17.0437C16.6922 17.3952 16.3536 17.6166 15.898 17.7988C14.583 18.3196 11.4582 18.2025 10 18.2025C8.54178 18.2025 5.41704 18.3196 4.10204 17.7988C3.64635 17.6166 3.30784 17.3952 2.9563 17.0437C2.60477 16.6922 2.38343 16.3536 2.20116 15.898C1.68036 14.583 1.79754 11.4582 1.79754 10C1.79754 8.54179 1.68036 5.41704 2.20116 4.10204C2.38343 3.64635 2.60477 3.30784 2.9563 2.9563C3.30784 2.60477 3.64635 2.38343 4.10204 2.20115C5.41704 1.68036 8.54178 1.79754 10 1.79754ZM19.9992 10C19.9992 8.6199 20.0122 7.25283 19.9341 5.87273C19.856 4.2713 19.4914 2.85214 18.3196 1.68036C17.1479 0.508585 15.7287 0.144031 14.1273 0.0659133C12.7472 -0.0122057 11.3801 0.000813668 10 0.000813668C8.6199 0.000813668 7.25283 -0.0122057 5.87273 0.0659133C4.2713 0.144031 2.85214 0.508585 1.68036 1.68036C0.508585 2.85214 0.144031 4.2713 0.0659126 5.87273C-0.012206 7.25283 0.000813736 8.6199 0.000813736 10C0.000813736 11.3801 -0.012206 12.7472 0.0659126 14.1273C0.144031 15.7287 0.508585 17.1479 1.68036 18.3196C2.85214 19.4914 4.2713 19.856 5.87273 19.9341C7.25283 20.0122 8.6199 19.9992 10 19.9992C11.3801 19.9992 12.7472 20.0122 14.1273 19.9341C15.7287 19.856 17.1479 19.4914 18.3196 18.3196C19.4914 17.1479 19.856 15.7287 19.9341 14.1273C20.0122 12.7472 19.9992 11.3801 19.9992 10Z" fill="#516177"/>
</svg>
