<svg width="57" height="1052" viewBox="0 0 57 1052" fill="none" xmlns="http://www.w3.org/2000/svg">
<path opacity="0.6" fill-rule="evenodd" clip-rule="evenodd" d="M196.285 913.469C196.285 913.469 203.999 965.495 121.011 1024.57C81.2674 1052.86 31.6818 854.417 31.4219 563.885C31.2556 377.872 57.8207 105.393 74.3688 -128.437C85.9444 -292.003 88.6512 -459.143 90.7665 -468.836C104.27 -530.712 131.726 -472.842 142.302 -458.139C158.84 -435.147 183.503 -81.4391 183.503 -81.4391L196.285 913.469Z" stroke="white" stroke-width="2"/>
<path fill-rule="evenodd" clip-rule="evenodd" d="M169.097 695.273C169.097 695.273 176.811 747.299 93.8223 806.375C54.079 834.667 4.49331 636.22 4.23346 345.689C4.06709 159.675 30.6322 -112.803 47.1804 -346.633C58.7559 -510.199 61.4627 -677.339 63.578 -687.032C77.0815 -748.908 104.538 -691.038 115.113 -676.336C131.652 -653.344 156.314 -299.635 156.314 -299.635L169.097 695.273Z" stroke="white" stroke-width="2"/>
</svg>
