<svg width="96" height="1143" viewBox="0 0 96 1143" fill="none" xmlns="http://www.w3.org/2000/svg">
<path fill-rule="evenodd" clip-rule="evenodd" d="M-72.6315 1196.14C-72.6315 1196.14 -75.7621 1272.87 -4.71283 950.609C29.3128 796.279 57.6473 413.665 40.3115 176.263C29.2122 24.2655 -8.84571 -78.7639 -36.4242 -195.063C-55.7156 -276.414 -68.0112 -400.245 -70.3167 -398.688C-85.034 -388.75 -103.865 -219.183 -111.576 -160.04C-123.635 -67.5506 -122.327 330.108 -122.327 330.108L-72.6315 1196.14Z" stroke="white" stroke-width="2"/>
<path fill-rule="evenodd" clip-rule="evenodd" d="M-63.7028 897.405C-63.7028 897.405 -66.8334 974.13 4.21588 651.873C38.2415 497.544 66.576 114.929 49.2402 -122.473C38.1409 -274.47 0.0830039 -377.5 -27.4955 -493.799C-46.7869 -575.15 -59.0825 -698.981 -61.388 -697.424C-76.1053 -687.485 -94.9359 -517.919 -102.647 -458.776C-114.707 -366.287 -113.398 31.3721 -113.398 31.3721L-63.7028 897.405Z" stroke="white" stroke-width="2"/>
</svg>
