<svg width="48" height="48" viewBox="0 0 48 48" fill="none" xmlns="http://www.w3.org/2000/svg">
<path d="M31.0312 0C27.6309 0 25.2922 1.70428 24 3.00609C22.7078 1.70428 20.3691 0 16.9688 0C12.2378 0 8.53125 4.41825 8.53125 9.9375C8.53125 13.7594 10.4552 21.1958 23.3394 28.0539C23.5454 28.1638 23.7734 28.2188 24 28.2188C24.2266 28.2188 24.4546 28.1638 24.6606 28.0539C37.5448 21.1958 39.4688 13.7594 39.4688 9.9375C39.4688 4.41825 35.7623 0 31.0312 0V0Z" fill="url(#paint0_linear)"/>
<path d="M45.1875 16.9687C43.6406 16.9687 42.2812 18.2343 42.2812 19.7812V29.6249C42.2812 29.9906 42.1406 30.3562 41.8593 30.6092L35.5593 36.9373C35.0249 37.4717 34.1249 37.4717 33.5625 36.9373C33.0561 36.403 33.0281 35.5593 33.5062 34.9967L38.5123 30.0187C39.5777 28.9534 39.6327 27.1717 38.5123 26.053C37.4155 24.9279 35.6155 24.9279 34.5187 26.053L29.1188 31.453C26.728 33.8437 25.4062 37.0218 25.4062 40.3966V46.5937C25.4062 47.3811 26.0249 47.9999 26.8125 47.9999H35.25C36.0376 47.9999 36.6562 47.3811 36.6562 46.5937V43.7998L45.947 34.6029C47.2688 33.2812 48 31.5093 48 29.6249V19.7812C48 18.2343 46.7344 16.9687 45.1875 16.9687ZM13.4813 26.053C12.3844 24.9279 10.5843 24.9279 9.48759 26.053C8.36719 27.1717 8.42222 28.9534 9.48759 30.0187L14.4938 34.9967C14.9718 35.5592 14.9438 36.403 14.4374 36.9373C13.875 37.4717 12.975 37.4717 12.4406 36.9373L6.14062 30.6092C5.85938 30.3562 5.71875 29.9906 5.71875 29.6249V19.7812C5.71875 18.2343 4.45312 16.9687 2.90625 16.9687C1.35938 16.9687 0 18.2343 0 19.7812V29.6249C0 31.5093 0.73125 33.2812 2.05303 34.603L11.3438 43.7998V46.5937C11.3438 47.3811 11.9624 47.9999 12.75 47.9999H21.1875C21.9751 47.9999 22.5938 47.3811 22.5938 46.5937C22.5938 46.3309 22.5938 40.6874 22.5938 40.3966C22.5938 37.0218 21.272 33.8437 18.8812 31.453L13.4813 26.053ZM27.4264 16.0568L28.6335 12.8351L29.2034 13.5931C29.4684 13.9474 29.8859 14.1562 30.3281 14.1562H32.4375C33.2148 14.1562 33.8438 13.5272 33.8438 12.7499C33.8438 11.9727 33.2148 11.3437 32.4375 11.3437H31.0312L29.3435 9.09425C29.0359 8.68503 28.525 8.48038 28.0196 8.54497C27.5101 8.61772 27.0831 8.96244 26.9017 9.44309L26.1094 11.558L25.317 9.44309C24.905 8.34725 23.095 8.34725 22.683 9.44309L21.8906 11.558L21.0983 9.44309C20.9169 8.96244 20.4899 8.61772 19.9804 8.54497C19.4737 8.47353 18.9628 8.68363 18.6565 9.09425L16.9688 11.3437H15.5625C14.7852 11.3437 14.1562 11.9727 14.1562 12.7499C14.1562 13.5272 14.7852 14.1562 15.5625 14.1562H17.6719C18.1141 14.1562 18.5316 13.9474 18.7966 13.5931L19.3665 12.8351L20.5736 16.0568C20.9857 17.1526 22.7956 17.1526 23.2076 16.0568L24 13.942L24.7924 16.0569C25.2487 17.2708 26.9708 17.2684 27.4264 16.0568Z" fill="url(#paint1_linear)"/>
<defs>
<linearGradient id="paint0_linear" x1="24" y1="28.2188" x2="24" y2="0" gradientUnits="userSpaceOnUse">
<stop stop-color="#EDB1B6"/>
<stop offset="1" stop-color="#FAC4C8"/>
</linearGradient>
<linearGradient id="paint1_linear" x1="24" y1="47.9999" x2="24" y2="8.53119" gradientUnits="userSpaceOnUse">
<stop stop-color="#FFC2CC"/>
<stop offset="1" stop-color="#FDDBE0"/>
</linearGradient>
</defs>
</svg>
