<svg width="41" height="41" viewBox="0 0 41 41" fill="none" xmlns="http://www.w3.org/2000/svg">
<g clip-path="url(#clip0)">
<path d="M40.7212 5.23639C40.4936 4.96308 40.1558 4.80469 39.7992 4.80469C37.8121 4.80469 36.1156 3.18823 36.1156 1.20117C36.1156 0.537244 35.5783 0 34.9144 0H6.00621C5.34228 0 4.80503 0.537244 4.80503 1.20117C4.80503 3.18823 3.18858 4.80469 1.20152 4.80469C0.84493 4.80469 0.50708 4.96308 0.279498 5.23639C0.0507947 5.5097 -0.0442581 5.86981 0.0202849 6.22055L4.90505 32.8065C4.97192 33.1784 5.21119 33.4974 5.54904 33.6663L19.9631 40.8733C20.132 40.9578 20.3162 41 20.5003 41C20.6845 41 20.8687 40.9578 21.0376 40.8733L35.4517 33.6663C35.7895 33.4974 36.0288 33.1783 36.0956 32.8065L40.9804 6.22055C41.045 5.86981 40.9499 5.5097 40.7212 5.23639Z" fill="url(#paint0_linear)"/>
<path d="M34.9523 8.12553C33.9295 7.417 33.059 6.47624 32.4374 5.40295C32.2227 5.03227 31.8262 4.80469 31.3981 4.80469H9.52094C9.09276 4.80469 8.69629 5.03227 8.4816 5.40295C7.85995 6.47624 6.98959 7.417 5.96675 8.12553C5.57845 8.39299 5.38378 8.86457 5.46818 9.3279L9.20222 29.583C9.26909 29.9549 9.50836 30.2739 9.84621 30.4428L19.9623 35.5021C20.1312 35.5866 20.3154 35.6288 20.4996 35.6288C20.6837 35.6288 20.8679 35.5866 21.0368 35.5021L31.1529 30.4428C31.4908 30.2739 31.73 29.9548 31.7969 29.583L35.4509 9.3279C35.5354 8.86449 35.3406 8.39299 34.9523 8.12553ZM27.7066 19.2988H23.6444L21.5741 23.4396C21.3687 23.8489 20.9512 24.1035 20.4996 24.1035C19.9462 24.1035 19.4681 23.7265 19.3348 23.1933L17.7195 16.7346L16.7694 18.6349C16.5652 19.0419 16.15 19.2988 15.6949 19.2988H13.2925C12.6286 19.2988 12.0914 18.7616 12.0914 18.0977C12.0914 17.4337 12.6286 16.8965 13.2925 16.8965H14.9524L17.0227 12.7557C17.248 12.3076 17.716 12.0472 18.2286 12.0988C18.7283 12.1539 19.1401 12.5141 19.262 13.002L20.8773 19.4607L21.8274 17.5604C22.0315 17.1534 22.4467 16.8965 22.9019 16.8965H27.7066C28.3705 16.8965 28.9078 17.4337 28.9078 18.0977C28.9078 18.7616 28.3705 19.2988 27.7066 19.2988Z" fill="#D3F6F4"/>
</g>
<defs>
<linearGradient id="paint0_linear" x1="20.5003" y1="41" x2="20.5003" y2="0" gradientUnits="userSpaceOnUse">
<stop stop-color="#B3DDDB"/>
<stop offset="1" stop-color="#B3DDDB"/>
</linearGradient>
<clipPath id="clip0">
<rect width="41" height="41" fill="white"/>
</clipPath>
</defs>
</svg>
