<svg width="218" height="471" viewBox="0 0 218 471" fill="none" xmlns="http://www.w3.org/2000/svg">
<path opacity="0.6" fill-rule="evenodd" clip-rule="evenodd" d="M754.225 408.384C754.225 408.384 783.869 431.643 464.971 458.054C312.251 470.703 121.71 381.983 120.711 252.096C120.072 168.935 222.153 47.1181 285.742 -57.4202C330.223 -130.545 340.624 -205.269 348.752 -209.602C400.642 -237.265 506.147 -211.393 546.786 -204.82C610.337 -194.541 705.107 -36.4089 705.107 -36.4089L754.225 408.384Z" stroke="white" stroke-width="2"/>
<path fill-rule="evenodd" clip-rule="evenodd" d="M649.751 310.835C649.751 310.835 679.395 334.094 360.497 360.505C207.777 373.154 17.2357 284.434 16.2371 154.547C15.5978 71.3859 117.679 -50.4308 181.268 -154.969C225.749 -228.094 236.15 -302.818 244.278 -307.151C296.168 -334.814 401.673 -308.942 442.312 -302.369C505.863 -292.09 600.634 -133.958 600.634 -133.958L649.751 310.835Z" stroke="white" stroke-width="2"/>
</svg>
