<svg width="367" height="511" viewBox="0 0 367 511" fill="none" xmlns="http://www.w3.org/2000/svg">
<path fill-rule="evenodd" clip-rule="evenodd" d="M-279.099 534.757C-279.099 534.757 -291.128 569.059 -18.1097 424.988C112.639 355.992 221.519 184.936 154.904 78.8013C112.253 10.8481 -33.9911 -35.2132 -139.966 -87.2067C-214.096 -123.577 -261.344 -178.937 -270.204 -178.241C-326.757 -173.798 -399.117 -97.9903 -428.75 -71.5492C-475.089 -30.2 -470.061 147.581 -470.061 147.581L-279.099 534.757Z" stroke="white" stroke-width="2"/>
<path fill-rule="evenodd" clip-rule="evenodd" d="M-244.787 401.202C-244.787 401.202 -256.817 435.504 16.2013 291.432C146.95 222.436 255.83 51.3809 189.215 -54.7542C146.564 -122.707 0.319973 -168.769 -105.655 -220.762C-179.785 -257.132 -227.033 -312.493 -235.892 -311.797C-292.446 -307.354 -364.806 -231.546 -394.439 -205.105C-440.778 -163.755 -435.75 14.0254 -435.75 14.0254L-244.787 401.202Z" stroke="white" stroke-width="2"/>
</svg>
