<svg width="18" height="13" viewBox="0 0 18 13" fill="none" xmlns="http://www.w3.org/2000/svg">
<path d="M8.99995 3.68182C7.64585 3.68182 6.54541 4.78226 6.54541 6.13637C6.54541 7.49047 7.64585 8.59091 8.99995 8.59091C10.3541 8.59091 11.4545 7.49047 11.4545 6.13637C11.4545 4.78226 10.354 3.68182 8.99995 3.68182Z" fill="#888FA9"/>
<path d="M9 0C4.90908 0 1.41547 2.54452 0 6.13635C1.41547 9.72815 4.90908 12.2727 9 12.2727C13.095 12.2727 16.5845 9.72815 18 6.13635C16.5845 2.54452 13.095 0 9 0ZM9 10.2272C6.74182 10.2272 4.90908 8.39449 4.90908 6.13632C4.90908 3.87814 6.74182 2.04544 9 2.04544C11.2582 2.04544 13.0909 3.87818 13.0909 6.13635C13.0909 8.39453 11.2582 10.2272 9 10.2272Z" fill="#888FA9"/>
</svg>
