<svg width="333" height="331" viewBox="0 0 333 331" fill="none" xmlns="http://www.w3.org/2000/svg">
<path d="M0.00125122 331H234.664V95.9127H0.00125122V331Z" fill="#BCF0ED"/>
<path d="M180.832 293.371C181.894 293.371 182.932 293.686 183.816 294.276C184.699 294.865 185.387 295.703 185.794 296.683C186.2 297.664 186.307 298.742 186.099 299.783C185.892 300.824 185.381 301.78 184.63 302.53C183.878 303.28 182.921 303.791 181.879 303.998C180.838 304.205 179.758 304.099 178.776 303.693C177.795 303.287 176.956 302.599 176.366 301.717C175.776 300.835 175.461 299.798 175.461 298.736C175.467 297.316 176.035 295.955 177.041 294.95C178.047 293.945 179.409 293.378 180.832 293.371Z" fill="white"/>
<path d="M144.138 293.371C145.201 293.371 146.239 293.686 147.122 294.276C148.006 294.865 148.694 295.703 149.1 296.683C149.507 297.664 149.613 298.742 149.406 299.783C149.199 300.824 148.687 301.78 147.936 302.53C147.185 303.28 146.228 303.791 145.186 303.998C144.144 304.205 143.064 304.099 142.083 303.693C141.102 303.287 140.263 302.599 139.673 301.717C139.082 300.835 138.767 299.798 138.767 298.736C138.774 297.316 139.342 295.955 140.348 294.95C141.353 293.945 142.716 293.378 144.138 293.371Z" fill="white"/>
<path d="M107.444 293.371C108.507 293.371 109.545 293.686 110.428 294.276C111.312 294.865 112 295.703 112.407 296.683C112.813 297.664 112.919 298.742 112.712 299.783C112.505 300.824 111.993 301.78 111.242 302.53C110.491 303.28 109.534 303.791 108.492 303.998C107.45 304.205 106.371 304.099 105.389 303.693C104.408 303.287 103.569 302.599 102.979 301.717C102.389 300.835 102.074 299.798 102.074 298.736C102.08 297.316 102.648 295.955 103.654 294.95C104.66 293.945 106.022 293.378 107.444 293.371Z" fill="white"/>
<path d="M70.7511 293.371C71.8134 293.371 72.8518 293.686 73.7351 294.276C74.6183 294.865 75.3067 295.703 75.7132 296.683C76.1197 297.664 76.2261 298.742 76.0189 299.783C75.8116 300.824 75.3001 301.78 74.549 302.53C73.7978 303.28 72.8408 303.791 71.7989 303.998C70.7571 304.205 69.6771 304.099 68.6957 303.693C67.7143 303.287 66.8755 302.599 66.2853 301.717C65.6951 300.835 65.3801 299.798 65.3801 298.736C65.3866 297.316 65.9545 295.955 66.9603 294.95C67.9662 293.945 69.3286 293.378 70.7511 293.371Z" fill="white"/>
<path d="M34.0577 293.371C35.12 293.371 36.1585 293.686 37.0417 294.276C37.925 294.865 38.6134 295.703 39.0199 296.683C39.4264 297.664 39.5327 298.742 39.3255 299.783C39.1183 300.824 38.6067 301.78 37.8556 302.53C37.1045 303.28 36.1474 303.791 35.1056 303.998C34.0637 304.205 32.9838 304.099 32.0024 303.693C31.021 303.287 30.1821 302.599 29.592 301.717C29.0018 300.835 28.6868 299.798 28.6868 298.736C28.6868 298.032 28.8257 297.334 29.0956 296.683C29.3656 296.032 29.7612 295.441 30.2599 294.943C30.7587 294.445 31.3507 294.049 32.0024 293.78C32.654 293.51 33.3524 293.371 34.0577 293.371Z" fill="white"/>
<path d="M180.832 256.718C181.895 256.718 182.934 257.034 183.818 257.624C184.702 258.215 185.39 259.054 185.796 260.036C186.202 261.018 186.307 262.098 186.098 263.139C185.888 264.18 185.374 265.136 184.621 265.886C183.867 266.635 182.908 267.144 181.865 267.348C180.821 267.552 179.74 267.443 178.759 267.033C177.778 266.623 176.941 265.932 176.354 265.046C175.767 264.161 175.456 263.121 175.461 262.059C175.467 260.64 176.036 259.282 177.042 258.281C178.049 257.28 179.411 256.718 180.832 256.718Z" fill="white"/>
<path d="M144.138 256.718C145.202 256.718 146.241 257.034 147.125 257.624C148.009 258.215 148.697 259.054 149.103 260.036C149.509 261.018 149.614 262.098 149.404 263.139C149.195 264.18 148.681 265.136 147.927 265.886C147.174 266.635 146.215 267.144 145.171 267.348C144.128 267.552 143.047 267.443 142.066 267.033C141.085 266.623 140.248 265.932 139.661 265.046C139.073 264.161 138.763 263.121 138.767 262.059C138.774 260.64 139.343 259.282 140.349 258.281C141.356 257.28 142.718 256.718 144.138 256.718Z" fill="white"/>
<path d="M107.445 256.718C108.508 256.718 109.547 257.034 110.431 257.624C111.315 258.215 112.003 259.054 112.409 260.036C112.815 261.018 112.92 262.098 112.71 263.139C112.501 264.18 111.987 265.136 111.234 265.886C110.48 266.635 109.521 267.144 108.477 267.348C107.434 267.552 106.353 267.443 105.372 267.033C104.391 266.623 103.554 265.932 102.967 265.046C102.38 264.161 102.069 263.121 102.074 262.059C102.08 260.64 102.649 259.282 103.655 258.281C104.662 257.28 106.024 256.718 107.445 256.718Z" fill="white"/>
<path d="M70.7511 256.718C71.8145 256.718 72.8538 257.034 73.7376 257.624C74.6214 258.215 75.3098 259.054 75.7156 260.036C76.1214 261.018 76.2263 262.098 76.0171 263.139C75.8078 264.18 75.2939 265.136 74.5403 265.886C73.7867 266.635 72.8274 267.144 71.7839 267.348C70.7405 267.552 69.6598 267.443 68.6788 267.033C67.6978 266.623 66.8607 265.932 66.2735 265.046C65.6862 264.161 65.3754 263.121 65.3802 262.059C65.3866 260.64 65.9554 259.282 66.9619 258.281C67.9685 257.28 69.3309 256.718 70.7511 256.718Z" fill="white"/>
<path d="M34.0578 256.718C35.1211 256.718 36.1605 257.034 37.0443 257.624C37.928 258.215 38.6164 259.054 39.0222 260.036C39.428 261.018 39.5329 262.098 39.3237 263.139C39.1145 264.18 38.6005 265.136 37.8469 265.886C37.0934 266.635 36.134 267.144 35.0906 267.348C34.0471 267.552 32.9664 267.443 31.9855 267.033C31.0045 266.623 30.1674 265.932 29.5801 265.046C28.9929 264.161 28.682 263.121 28.6869 262.059C28.6869 261.356 28.8259 260.659 29.0962 260.009C29.3664 259.36 29.7624 258.77 30.2614 258.274C30.7605 257.778 31.3528 257.385 32.0043 257.118C32.6558 256.851 33.3536 256.715 34.0578 256.718Z" fill="white"/>
<path d="M180.832 220.041C181.894 220.041 182.932 220.355 183.816 220.945C184.699 221.534 185.387 222.372 185.794 223.353C186.2 224.333 186.307 225.412 186.099 226.452C185.892 227.493 185.381 228.449 184.63 229.199C183.878 229.95 182.921 230.461 181.879 230.668C180.838 230.875 179.758 230.769 178.776 230.362C177.795 229.956 176.956 229.269 176.366 228.386C175.776 227.504 175.461 226.467 175.461 225.406C175.467 223.985 176.035 222.624 177.041 221.619C178.047 220.614 179.409 220.047 180.832 220.041Z" fill="white"/>
<path d="M144.138 220.041C145.201 220.041 146.239 220.355 147.122 220.945C148.006 221.534 148.694 222.372 149.1 223.353C149.507 224.333 149.613 225.412 149.406 226.452C149.199 227.493 148.687 228.449 147.936 229.199C147.185 229.95 146.228 230.461 145.186 230.668C144.144 230.875 143.064 230.769 142.083 230.362C141.102 229.956 140.263 229.269 139.673 228.386C139.082 227.504 138.767 226.467 138.767 225.406C138.774 223.985 139.342 222.624 140.348 221.619C141.353 220.614 142.716 220.047 144.138 220.041Z" fill="white"/>
<path d="M107.444 220.041C108.507 220.041 109.545 220.355 110.428 220.945C111.312 221.534 112 222.372 112.407 223.353C112.813 224.333 112.919 225.412 112.712 226.452C112.505 227.493 111.993 228.449 111.242 229.199C110.491 229.95 109.534 230.461 108.492 230.668C107.45 230.875 106.371 230.769 105.389 230.362C104.408 229.956 103.569 229.269 102.979 228.386C102.389 227.504 102.074 226.467 102.074 225.406C102.08 223.985 102.648 222.624 103.654 221.619C104.66 220.614 106.022 220.047 107.444 220.041Z" fill="white"/>
<path d="M70.7511 220.041C71.8134 220.041 72.8518 220.355 73.7351 220.945C74.6183 221.534 75.3067 222.372 75.7132 223.353C76.1197 224.333 76.2261 225.412 76.0189 226.452C75.8116 227.493 75.3001 228.449 74.549 229.199C73.7978 229.95 72.8408 230.461 71.7989 230.668C70.7571 230.875 69.6771 230.769 68.6957 230.362C67.7143 229.956 66.8755 229.269 66.2853 228.386C65.6951 227.504 65.3801 226.467 65.3801 225.406C65.3866 223.985 65.9545 222.624 66.9603 221.619C67.9662 220.614 69.3286 220.047 70.7511 220.041Z" fill="white"/>
<path d="M34.0577 220.041C35.12 220.041 36.1585 220.355 37.0417 220.945C37.925 221.534 38.6134 222.372 39.0199 223.353C39.4264 224.333 39.5327 225.412 39.3255 226.452C39.1183 227.493 38.6067 228.449 37.8556 229.199C37.1045 229.95 36.1474 230.461 35.1056 230.668C34.0637 230.875 32.9838 230.769 32.0024 230.362C31.021 229.956 30.1821 229.269 29.592 228.386C29.0018 227.504 28.6868 226.467 28.6868 225.406C28.6868 224.701 28.8257 224.004 29.0956 223.353C29.3656 222.702 29.7612 222.11 30.2599 221.612C30.7587 221.114 31.3507 220.719 32.0024 220.449C32.654 220.18 33.3524 220.041 34.0577 220.041Z" fill="white"/>
<path d="M180.832 183.388C181.894 183.388 182.932 183.702 183.816 184.292C184.699 184.881 185.387 185.719 185.794 186.699C186.2 187.68 186.307 188.759 186.099 189.799C185.892 190.84 185.381 191.796 184.63 192.546C183.878 193.297 182.921 193.808 181.879 194.015C180.838 194.222 179.758 194.115 178.776 193.709C177.795 193.303 176.956 192.616 176.366 191.733C175.776 190.851 175.461 189.814 175.461 188.753C175.467 187.332 176.035 185.971 177.041 184.966C178.047 183.961 179.409 183.394 180.832 183.388Z" fill="white"/>
<path d="M144.138 183.388C145.201 183.388 146.239 183.702 147.122 184.292C148.006 184.881 148.694 185.719 149.1 186.699C149.507 187.68 149.613 188.759 149.406 189.799C149.199 190.84 148.687 191.796 147.936 192.546C147.185 193.297 146.228 193.808 145.186 194.015C144.144 194.222 143.064 194.115 142.083 193.709C141.102 193.303 140.263 192.616 139.673 191.733C139.082 190.851 138.767 189.814 138.767 188.753C138.774 187.332 139.342 185.971 140.348 184.966C141.353 183.961 142.716 183.394 144.138 183.388Z" fill="white"/>
<path d="M107.444 183.388C108.507 183.388 109.545 183.702 110.428 184.292C111.312 184.881 112 185.719 112.407 186.699C112.813 187.68 112.919 188.759 112.712 189.799C112.505 190.84 111.993 191.796 111.242 192.546C110.491 193.297 109.534 193.808 108.492 194.015C107.45 194.222 106.371 194.115 105.389 193.709C104.408 193.303 103.569 192.616 102.979 191.733C102.389 190.851 102.074 189.814 102.074 188.753C102.08 187.332 102.648 185.971 103.654 184.966C104.66 183.961 106.022 183.394 107.444 183.388Z" fill="white"/>
<path d="M70.7511 183.388C71.8134 183.388 72.8518 183.702 73.7351 184.292C74.6183 184.881 75.3067 185.719 75.7132 186.699C76.1197 187.68 76.2261 188.759 76.0189 189.799C75.8116 190.84 75.3001 191.796 74.549 192.546C73.7978 193.297 72.8408 193.808 71.7989 194.015C70.7571 194.222 69.6771 194.115 68.6957 193.709C67.7143 193.303 66.8755 192.616 66.2853 191.733C65.6951 190.851 65.3801 189.814 65.3801 188.753C65.3866 187.332 65.9545 185.971 66.9603 184.966C67.9662 183.961 69.3286 183.394 70.7511 183.388Z" fill="white"/>
<path d="M34.0577 183.388C35.12 183.388 36.1585 183.702 37.0417 184.292C37.925 184.881 38.6134 185.719 39.0199 186.699C39.4264 187.68 39.5327 188.759 39.3255 189.799C39.1183 190.84 38.6067 191.796 37.8556 192.546C37.1045 193.297 36.1474 193.808 35.1056 194.015C34.0637 194.222 32.9838 194.115 32.0024 193.709C31.021 193.303 30.1821 192.616 29.592 191.733C29.0018 190.851 28.6868 189.814 28.6868 188.753C28.6868 188.048 28.8257 187.35 29.0956 186.699C29.3656 186.049 29.7612 185.457 30.2599 184.959C30.7587 184.461 31.3507 184.066 32.0024 183.796C32.654 183.526 33.3524 183.388 34.0577 183.388Z" fill="white"/>
<path d="M180.832 146.734C181.894 146.734 182.932 147.049 183.816 147.639C184.699 148.228 185.387 149.066 185.794 150.046C186.2 151.027 186.307 152.105 186.099 153.146C185.892 154.187 185.381 155.143 184.63 155.893C183.878 156.644 182.921 157.154 181.879 157.362C180.838 157.569 179.758 157.462 178.776 157.056C177.795 156.65 176.956 155.962 176.366 155.08C175.776 154.198 175.461 153.161 175.461 152.1C175.461 150.677 176.027 149.312 177.034 148.306C178.041 147.3 179.407 146.734 180.832 146.734Z" fill="white"/>
<path d="M144.138 146.734C145.201 146.734 146.239 147.049 147.122 147.639C148.006 148.228 148.694 149.066 149.1 150.046C149.507 151.027 149.613 152.105 149.406 153.146C149.199 154.187 148.687 155.143 147.936 155.893C147.185 156.644 146.228 157.154 145.186 157.362C144.144 157.569 143.064 157.462 142.083 157.056C141.102 156.65 140.263 155.962 139.673 155.08C139.082 154.198 138.767 153.161 138.767 152.1C138.767 150.677 139.333 149.312 140.34 148.306C141.348 147.3 142.714 146.734 144.138 146.734Z" fill="white"/>
<path d="M107.444 146.734C108.507 146.734 109.545 147.049 110.428 147.639C111.312 148.228 112 149.066 112.407 150.046C112.813 151.027 112.919 152.105 112.712 153.146C112.505 154.187 111.993 155.143 111.242 155.893C110.491 156.644 109.534 157.154 108.492 157.362C107.45 157.569 106.371 157.462 105.389 157.056C104.408 156.65 103.569 155.962 102.979 155.08C102.389 154.198 102.074 153.161 102.074 152.1C102.074 150.677 102.639 149.312 103.647 148.306C104.654 147.3 106.02 146.734 107.444 146.734Z" fill="white"/>
<path d="M70.7511 146.734C71.8134 146.734 72.8518 147.049 73.7351 147.639C74.6183 148.228 75.3067 149.066 75.7132 150.046C76.1197 151.027 76.2261 152.105 76.0189 153.146C75.8116 154.187 75.3001 155.143 74.549 155.893C73.7978 156.644 72.8408 157.154 71.7989 157.362C70.7571 157.569 69.6771 157.462 68.6957 157.056C67.7143 156.65 66.8755 155.962 66.2853 155.08C65.6951 154.198 65.3801 153.161 65.3801 152.1C65.3801 150.677 65.946 149.312 66.9532 148.306C67.9605 147.3 69.3266 146.734 70.7511 146.734Z" fill="white"/>
<path d="M34.0577 146.734C35.12 146.734 36.1585 147.049 37.0417 147.639C37.925 148.228 38.6134 149.066 39.0199 150.046C39.4264 151.027 39.5327 152.105 39.3255 153.146C39.1183 154.187 38.6067 155.143 37.8556 155.893C37.1045 156.644 36.1474 157.154 35.1056 157.362C34.0637 157.569 32.9838 157.462 32.0024 157.056C31.021 156.65 30.1821 155.962 29.592 155.08C29.0018 154.198 28.6868 153.161 28.6868 152.1C28.6836 151.394 28.8203 150.695 29.089 150.043C29.3578 149.39 29.7533 148.797 30.2527 148.299C30.7521 147.8 31.3455 147.405 31.9986 147.136C32.6516 146.868 33.3515 146.731 34.0577 146.734Z" fill="white"/>
<path d="M180.832 109.959C181.894 109.959 182.932 110.274 183.816 110.863C184.699 111.453 185.387 112.291 185.794 113.271C186.2 114.252 186.307 115.33 186.099 116.371C185.892 117.412 185.381 118.368 184.63 119.118C183.878 119.868 182.921 120.379 181.879 120.586C180.838 120.793 179.758 120.687 178.776 120.281C177.795 119.875 176.956 119.187 176.366 118.305C175.776 117.423 175.461 116.385 175.461 115.324C175.467 113.903 176.035 112.543 177.041 111.538C178.047 110.533 179.409 109.966 180.832 109.959Z" fill="white"/>
<path d="M144.138 109.959C145.201 109.959 146.239 110.274 147.122 110.863C148.006 111.453 148.694 112.291 149.1 113.271C149.507 114.252 149.613 115.33 149.406 116.371C149.199 117.412 148.687 118.368 147.936 119.118C147.185 119.868 146.228 120.379 145.186 120.586C144.144 120.793 143.064 120.687 142.083 120.281C141.102 119.875 140.263 119.187 139.673 118.305C139.082 117.423 138.767 116.385 138.767 115.324C138.774 113.903 139.342 112.543 140.348 111.538C141.353 110.533 142.716 109.966 144.138 109.959Z" fill="white"/>
<path d="M107.444 109.959C108.507 109.959 109.545 110.274 110.428 110.863C111.312 111.453 112 112.291 112.407 113.271C112.813 114.252 112.919 115.33 112.712 116.371C112.505 117.412 111.993 118.368 111.242 119.118C110.491 119.868 109.534 120.379 108.492 120.586C107.45 120.793 106.371 120.687 105.389 120.281C104.408 119.875 103.569 119.187 102.979 118.305C102.389 117.423 102.074 116.385 102.074 115.324C102.08 113.903 102.648 112.543 103.654 111.538C104.66 110.533 106.022 109.966 107.444 109.959Z" fill="white"/>
<path d="M70.7511 109.959C71.8134 109.959 72.8518 110.274 73.7351 110.863C74.6183 111.453 75.3067 112.291 75.7132 113.271C76.1197 114.252 76.2261 115.33 76.0189 116.371C75.8116 117.412 75.3001 118.368 74.549 119.118C73.7978 119.868 72.8408 120.379 71.7989 120.586C70.7571 120.793 69.6771 120.687 68.6957 120.281C67.7143 119.875 66.8755 119.187 66.2853 118.305C65.6951 117.423 65.3801 116.385 65.3801 115.324C65.3866 113.903 65.9545 112.543 66.9603 111.538C67.9662 110.533 69.3286 109.966 70.7511 109.959Z" fill="white"/>
<path d="M34.0577 109.959C35.12 109.959 36.1585 110.274 37.0417 110.863C37.925 111.453 38.6134 112.291 39.0199 113.271C39.4264 114.252 39.5327 115.33 39.3255 116.371C39.1183 117.412 38.6067 118.368 37.8556 119.118C37.1045 119.868 36.1474 120.379 35.1056 120.586C34.0637 120.793 32.9838 120.687 32.0024 120.281C31.021 119.875 30.1821 119.187 29.592 118.305C29.0018 117.423 28.6868 116.385 28.6868 115.324C28.6868 114.62 28.8257 113.922 29.0956 113.271C29.3656 112.62 29.7612 112.029 30.2599 111.531C30.7587 111.033 31.3507 110.637 32.0024 110.368C32.654 110.098 33.3524 109.959 34.0577 109.959Z" fill="white"/>
<path d="M180.832 73.3063C181.894 73.3063 182.932 73.6209 183.816 74.2104C184.699 74.8 185.387 75.6379 185.794 76.6182C186.2 77.5985 186.307 78.6773 186.099 79.718C185.892 80.7587 185.381 81.7147 184.63 82.465C183.878 83.2153 182.921 83.7263 181.879 83.9333C180.838 84.1403 179.758 84.0341 178.776 83.628C177.795 83.2219 176.956 82.5343 176.366 81.652C175.776 80.7697 175.461 79.7324 175.461 78.6713C175.467 77.2504 176.035 75.8895 177.041 74.8847C178.047 73.88 179.409 73.3127 180.832 73.3063Z" fill="white"/>
<path d="M144.138 73.3063C145.201 73.3063 146.239 73.6209 147.122 74.2104C148.006 74.8 148.694 75.6379 149.1 76.6182C149.507 77.5985 149.613 78.6773 149.406 79.718C149.199 80.7587 148.687 81.7147 147.936 82.465C147.185 83.2153 146.228 83.7263 145.186 83.9333C144.144 84.1403 143.064 84.0341 142.083 83.628C141.102 83.2219 140.263 82.5343 139.673 81.652C139.082 80.7697 138.767 79.7324 138.767 78.6713C138.774 77.2504 139.342 75.8895 140.348 74.8847C141.353 73.88 142.716 73.3127 144.138 73.3063Z" fill="white"/>
<path d="M107.444 73.3063C108.507 73.3063 109.545 73.6209 110.428 74.2104C111.312 74.8 112 75.6379 112.407 76.6182C112.813 77.5985 112.919 78.6773 112.712 79.718C112.505 80.7587 111.993 81.7147 111.242 82.465C110.491 83.2153 109.534 83.7263 108.492 83.9333C107.45 84.1403 106.371 84.0341 105.389 83.628C104.408 83.2219 103.569 82.5343 102.979 81.652C102.389 80.7697 102.074 79.7324 102.074 78.6713C102.08 77.2504 102.648 75.8895 103.654 74.8847C104.66 73.88 106.022 73.3127 107.444 73.3063Z" fill="white"/>
<path d="M70.7511 73.3063C71.8134 73.3063 72.8518 73.6209 73.7351 74.2104C74.6183 74.8 75.3067 75.6379 75.7132 76.6182C76.1197 77.5985 76.2261 78.6773 76.0189 79.718C75.8116 80.7587 75.3001 81.7147 74.549 82.465C73.7978 83.2153 72.8408 83.7263 71.7989 83.9333C70.7571 84.1403 69.6771 84.0341 68.6957 83.628C67.7143 83.2219 66.8755 82.5343 66.2853 81.652C65.6951 80.7697 65.3801 79.7324 65.3801 78.6713C65.3866 77.2504 65.9545 75.8895 66.9603 74.8847C67.9662 73.88 69.3286 73.3127 70.7511 73.3063Z" fill="white"/>
<path d="M34.0577 73.3063C35.12 73.3063 36.1585 73.6209 37.0417 74.2104C37.925 74.8 38.6134 75.6379 39.0199 76.6182C39.4264 77.5985 39.5327 78.6773 39.3255 79.718C39.1183 80.7587 38.6067 81.7147 37.8556 82.465C37.1045 83.2153 36.1474 83.7263 35.1056 83.9333C34.0637 84.1403 32.9838 84.0341 32.0024 83.628C31.021 83.2219 30.1821 82.5343 29.592 81.652C29.0018 80.7697 28.6868 79.7324 28.6868 78.6713C28.6868 77.9668 28.8257 77.2691 29.0956 76.6182C29.3656 75.9673 29.7612 75.3758 30.2599 74.8776C30.7587 74.3795 31.3507 73.9843 32.0024 73.7147C32.654 73.445 33.3524 73.3063 34.0577 73.3063Z" fill="white"/>
<path d="M180.832 36.6532C181.894 36.6532 182.932 36.9678 183.816 37.5573C184.699 38.1469 185.387 38.9848 185.794 39.9651C186.2 40.9454 186.307 42.0242 186.099 43.0649C185.892 44.1056 185.381 45.0616 184.63 45.8119C183.878 46.5622 182.921 47.0732 181.879 47.2802C180.838 47.4872 179.758 47.381 178.776 46.9749C177.795 46.5688 176.956 45.8812 176.366 44.9989C175.776 44.1166 175.461 43.0793 175.461 42.0182C175.467 40.5973 176.035 39.2364 177.041 38.2316C178.047 37.2269 179.409 36.6596 180.832 36.6532Z" fill="white"/>
<path d="M144.138 36.6532C145.201 36.6532 146.239 36.9678 147.122 37.5573C148.006 38.1469 148.694 38.9848 149.1 39.9651C149.507 40.9454 149.613 42.0242 149.406 43.0649C149.199 44.1056 148.687 45.0616 147.936 45.8119C147.185 46.5622 146.228 47.0732 145.186 47.2802C144.144 47.4872 143.064 47.381 142.083 46.9749C141.102 46.5688 140.263 45.8812 139.673 44.9989C139.082 44.1166 138.767 43.0793 138.767 42.0182C138.774 40.5973 139.342 39.2364 140.348 38.2316C141.353 37.2269 142.716 36.6596 144.138 36.6532Z" fill="white"/>
<path d="M107.444 36.6532C108.507 36.6532 109.545 36.9678 110.428 37.5573C111.312 38.1469 112 38.9848 112.407 39.9651C112.813 40.9454 112.919 42.0242 112.712 43.0649C112.505 44.1056 111.993 45.0616 111.242 45.8119C110.491 46.5622 109.534 47.0732 108.492 47.2802C107.45 47.4872 106.371 47.381 105.389 46.9749C104.408 46.5688 103.569 45.8812 102.979 44.9989C102.389 44.1166 102.074 43.0793 102.074 42.0182C102.08 40.5973 102.648 39.2364 103.654 38.2316C104.66 37.2269 106.022 36.6596 107.444 36.6532Z" fill="white"/>
<path d="M70.7511 36.6532C71.8134 36.6532 72.8518 36.9678 73.7351 37.5573C74.6183 38.1469 75.3067 38.9848 75.7132 39.9651C76.1197 40.9454 76.2261 42.0242 76.0189 43.0649C75.8116 44.1056 75.3001 45.0616 74.549 45.8119C73.7978 46.5622 72.8408 47.0732 71.7989 47.2802C70.7571 47.4872 69.6771 47.381 68.6957 46.9749C67.7143 46.5688 66.8755 45.8812 66.2853 44.9989C65.6951 44.1166 65.3801 43.0793 65.3801 42.0182C65.3866 40.5973 65.9545 39.2364 66.9603 38.2316C67.9662 37.2269 69.3286 36.6596 70.7511 36.6532Z" fill="white"/>
<path d="M34.0577 36.6532C35.12 36.6532 36.1585 36.9678 37.0417 37.5573C37.925 38.1469 38.6134 38.9848 39.0199 39.9651C39.4264 40.9454 39.5327 42.0242 39.3255 43.0649C39.1183 44.1056 38.6067 45.0616 37.8556 45.8119C37.1045 46.5622 36.1474 47.0732 35.1056 47.2802C34.0637 47.4872 32.9838 47.381 32.0024 46.9749C31.021 46.5688 30.1821 45.8812 29.592 44.9989C29.0018 44.1166 28.6868 43.0793 28.6868 42.0182C28.6868 41.3137 28.8257 40.616 29.0956 39.9651C29.3656 39.3142 29.7612 38.7227 30.2599 38.2246C30.7587 37.7264 31.3507 37.3312 32.0024 37.0616C32.654 36.7919 33.3524 36.6532 34.0577 36.6532Z" fill="white"/>
<path d="M180.832 -0.00012207C181.895 -0.000110626 182.934 0.315175 183.818 0.905781C184.702 1.49639 185.39 2.33571 185.796 3.31747C186.202 4.29922 186.307 5.37923 186.098 6.42061C185.888 7.46199 185.374 8.41789 184.621 9.16723C183.867 9.91656 182.908 10.4256 181.865 10.6298C180.821 10.8341 179.74 10.7244 178.759 10.3146C177.778 9.90475 176.941 9.2133 176.354 8.32782C175.767 7.44234 175.456 6.40269 175.461 5.34056C175.467 3.92188 176.036 2.56351 177.042 1.56263C178.049 0.561755 179.411 -0.000136375 180.832 -0.00012207Z" fill="white"/>
<path d="M144.138 -0.00012207C145.202 -0.000110626 146.241 0.315175 147.125 0.905781C148.009 1.49639 148.697 2.33571 149.103 3.31747C149.509 4.29922 149.614 5.37923 149.404 6.42061C149.195 7.46199 148.681 8.41789 147.927 9.16723C147.174 9.91656 146.215 10.4256 145.171 10.6298C144.128 10.8341 143.047 10.7244 142.066 10.3146C141.085 9.90475 140.248 9.2133 139.661 8.32782C139.073 7.44234 138.763 6.40269 138.767 5.34056C138.774 3.92188 139.343 2.56351 140.349 1.56263C141.356 0.561755 142.718 -0.000136375 144.138 -0.00012207Z" fill="white"/>
<path d="M107.445 -0.00012207C108.508 -0.000110626 109.547 0.315175 110.431 0.905781C111.315 1.49639 112.003 2.33571 112.409 3.31747C112.815 4.29922 112.92 5.37923 112.71 6.42061C112.501 7.46199 111.987 8.41789 111.234 9.16723C110.48 9.91656 109.521 10.4256 108.477 10.6298C107.434 10.8341 106.353 10.7244 105.372 10.3146C104.391 9.90475 103.554 9.2133 102.967 8.32782C102.38 7.44234 102.069 6.40269 102.074 5.34056C102.08 3.92188 102.649 2.56351 103.655 1.56263C104.662 0.561755 106.024 -0.000136375 107.445 -0.00012207Z" fill="white"/>
<path d="M70.7511 -0.00012207C71.8145 -0.000110626 72.8538 0.315175 73.7376 0.905781C74.6214 1.49639 75.3098 2.33571 75.7156 3.31747C76.1214 4.29922 76.2263 5.37923 76.0171 6.42061C75.8078 7.46199 75.2939 8.41789 74.5403 9.16723C73.7867 9.91656 72.8274 10.4256 71.7839 10.6298C70.7405 10.8341 69.6598 10.7244 68.6788 10.3146C67.6978 9.90475 66.8607 9.2133 66.2735 8.32782C65.6862 7.44234 65.3754 6.40269 65.3802 5.34056C65.3866 3.92188 65.9554 2.56351 66.9619 1.56263C67.9685 0.561755 69.3309 -0.000136375 70.7511 -0.00012207Z" fill="white"/>
<path d="M34.0578 -9.63211e-05C35.1211 -8.58307e-05 36.1605 0.3152 37.0443 0.905804C37.928 1.49641 38.6164 2.33573 39.0222 3.31748C39.428 4.29924 39.5329 5.37924 39.3237 6.42062C39.1145 7.46199 38.6005 8.4179 37.8469 9.16723C37.0934 9.91657 36.134 10.4256 35.0906 10.6298C34.0471 10.8341 32.9664 10.7244 31.9855 10.3146C31.0045 9.90475 30.1674 9.21331 29.5801 8.32783C28.9929 7.44235 28.682 6.4027 28.6869 5.34057C28.6869 4.63717 28.8259 3.94069 29.0962 3.29114C29.3664 2.64159 29.7624 2.05172 30.2614 1.55547C30.7605 1.05922 31.3528 0.666355 32.0043 0.3994C32.6558 0.132445 33.3536 -0.0033083 34.0578 -9.63211e-05Z" fill="white"/>
<path d="M327.606 293.371C328.668 293.371 329.706 293.686 330.59 294.276C331.473 294.865 332.161 295.703 332.568 296.683C332.974 297.664 333.081 298.742 332.873 299.783C332.666 300.824 332.155 301.78 331.403 302.53C330.652 303.28 329.695 303.791 328.653 303.998C327.612 304.205 326.532 304.099 325.55 303.693C324.569 303.287 323.73 302.599 323.14 301.717C322.55 300.835 322.235 299.798 322.235 298.736C322.241 297.316 322.809 295.955 323.815 294.95C324.821 293.945 326.183 293.378 327.606 293.371Z" fill="#516177"/>
<path d="M290.913 293.371C291.975 293.371 293.013 293.686 293.897 294.276C294.78 294.865 295.468 295.703 295.875 296.683C296.281 297.664 296.388 298.742 296.18 299.783C295.973 300.824 295.462 301.78 294.711 302.53C293.959 303.28 293.002 303.791 291.961 303.998C290.919 304.205 289.839 304.099 288.857 303.693C287.876 303.287 287.037 302.599 286.447 301.717C285.857 300.835 285.542 299.798 285.542 298.736C285.542 297.314 286.108 295.949 287.115 294.943C288.122 293.937 289.488 293.371 290.913 293.371Z" fill="#516177"/>
<path d="M254.218 293.371C255.281 293.371 256.319 293.686 257.202 294.276C258.086 294.865 258.774 295.703 259.181 296.683C259.587 297.664 259.693 298.742 259.486 299.783C259.279 300.824 258.767 301.78 258.016 302.53C257.265 303.28 256.308 303.791 255.266 303.998C254.224 304.205 253.144 304.099 252.163 303.693C251.182 303.287 250.343 302.599 249.753 301.717C249.162 300.835 248.847 299.798 248.847 298.736C248.847 298.032 248.986 297.334 249.256 296.683C249.526 296.032 249.922 295.441 250.421 294.943C250.919 294.445 251.511 294.049 252.163 293.78C252.815 293.51 253.513 293.371 254.218 293.371Z" fill="#516177"/>
<path d="M217.549 293.371C218.612 293.371 219.65 293.686 220.533 294.276C221.417 294.865 222.105 295.703 222.512 296.683C222.918 297.664 223.024 298.742 222.817 299.783C222.61 300.824 222.098 301.78 221.347 302.53C220.596 303.28 219.639 303.791 218.597 303.998C217.555 304.205 216.475 304.099 215.494 303.693C214.513 303.287 213.674 302.599 213.084 301.717C212.493 300.835 212.178 299.798 212.178 298.736C212.178 297.314 212.744 295.949 213.752 294.943C214.759 293.937 216.125 293.371 217.549 293.371Z" fill="white"/>
<path d="M327.606 256.718C328.669 256.718 329.708 257.034 330.592 257.624C331.476 258.215 332.164 259.054 332.57 260.036C332.976 261.018 333.081 262.098 332.872 263.139C332.662 264.18 332.148 265.136 331.395 265.886C330.641 266.635 329.682 267.144 328.638 267.348C327.595 267.552 326.514 267.443 325.533 267.033C324.552 266.623 323.715 265.932 323.128 265.046C322.541 264.161 322.23 263.121 322.235 262.059C322.241 260.64 322.81 259.282 323.816 258.281C324.823 257.28 326.185 256.718 327.606 256.718Z" fill="#516177"/>
<path d="M290.913 256.718C291.976 256.718 293.015 257.034 293.899 257.624C294.783 258.215 295.471 259.054 295.877 260.036C296.283 261.018 296.388 262.098 296.179 263.139C295.969 264.18 295.455 265.136 294.702 265.886C293.948 266.635 292.989 267.144 291.946 267.348C290.902 267.552 289.821 267.443 288.84 267.033C287.859 266.623 287.022 265.932 286.435 265.046C285.848 264.161 285.537 263.121 285.542 262.059C285.542 261.356 285.681 260.659 285.951 260.009C286.221 259.36 286.617 258.77 287.116 258.274C287.615 257.778 288.208 257.385 288.859 257.118C289.511 256.851 290.209 256.715 290.913 256.718Z" fill="#516177"/>
<path d="M254.218 256.718C255.282 256.718 256.321 257.034 257.205 257.624C258.089 258.215 258.777 259.054 259.183 260.036C259.589 261.018 259.694 262.098 259.484 263.139C259.275 264.18 258.761 265.136 258.008 265.886C257.254 266.635 256.295 267.144 255.251 267.348C254.208 267.552 253.127 267.443 252.146 267.033C251.165 266.623 250.328 265.932 249.741 265.046C249.154 264.161 248.843 263.121 248.847 262.059C248.847 261.356 248.987 260.659 249.257 260.009C249.527 259.36 249.923 258.77 250.422 258.274C250.921 257.778 251.513 257.385 252.165 257.118C252.816 256.851 253.514 256.715 254.218 256.718Z" fill="#516177"/>
<path d="M217.549 256.718C218.613 256.718 219.652 257.034 220.536 257.624C221.42 258.215 222.108 259.054 222.514 260.036C222.92 261.018 223.025 262.098 222.815 263.139C222.606 264.18 222.092 265.136 221.339 265.886C220.585 266.635 219.626 267.144 218.582 267.348C217.539 267.552 216.458 267.443 215.477 267.033C214.496 266.623 213.659 265.932 213.072 265.046C212.485 264.161 212.174 263.121 212.179 262.059C212.179 261.356 212.318 260.659 212.588 260.009C212.858 259.36 213.254 258.77 213.753 258.274C214.252 257.778 214.844 257.385 215.496 257.118C216.147 256.851 216.845 256.715 217.549 256.718Z" fill="white"/>
<path d="M327.606 220.041C328.668 220.041 329.706 220.355 330.59 220.945C331.473 221.534 332.161 222.372 332.568 223.353C332.974 224.333 333.081 225.412 332.873 226.452C332.666 227.493 332.155 228.449 331.403 229.199C330.652 229.95 329.695 230.461 328.653 230.668C327.612 230.875 326.532 230.769 325.55 230.362C324.569 229.956 323.73 229.269 323.14 228.386C322.55 227.504 322.235 226.467 322.235 225.406C322.241 223.985 322.809 222.624 323.815 221.619C324.821 220.614 326.183 220.047 327.606 220.041Z" fill="#516177"/>
<path d="M290.913 220.041C291.975 220.041 293.013 220.355 293.897 220.945C294.78 221.534 295.468 222.372 295.875 223.353C296.281 224.333 296.388 225.412 296.18 226.452C295.973 227.493 295.462 228.449 294.711 229.199C293.959 229.95 293.002 230.461 291.961 230.668C290.919 230.875 289.839 230.769 288.857 230.362C287.876 229.956 287.037 229.269 286.447 228.386C285.857 227.504 285.542 226.467 285.542 225.406C285.542 223.983 286.108 222.618 287.115 221.612C288.122 220.606 289.488 220.041 290.913 220.041Z" fill="#516177"/>
<path d="M254.218 220.041C255.281 220.041 256.319 220.355 257.202 220.945C258.086 221.534 258.774 222.372 259.181 223.353C259.587 224.333 259.693 225.412 259.486 226.452C259.279 227.493 258.767 228.449 258.016 229.199C257.265 229.95 256.308 230.461 255.266 230.668C254.224 230.875 253.144 230.769 252.163 230.362C251.182 229.956 250.343 229.269 249.753 228.386C249.162 227.504 248.847 226.467 248.847 225.406C248.847 224.701 248.986 224.004 249.256 223.353C249.526 222.702 249.922 222.11 250.421 221.612C250.919 221.114 251.511 220.719 252.163 220.449C252.815 220.18 253.513 220.041 254.218 220.041Z" fill="#516177"/>
<path d="M217.549 220.041C218.612 220.041 219.65 220.355 220.533 220.945C221.417 221.534 222.105 222.372 222.512 223.353C222.918 224.333 223.024 225.412 222.817 226.452C222.61 227.493 222.098 228.449 221.347 229.199C220.596 229.95 219.639 230.461 218.597 230.668C217.555 230.875 216.475 230.769 215.494 230.362C214.513 229.956 213.674 229.269 213.084 228.386C212.493 227.504 212.178 226.467 212.178 225.406C212.178 223.983 212.744 222.618 213.752 221.612C214.759 220.606 216.125 220.041 217.549 220.041Z" fill="white"/>
<path d="M327.606 183.388C328.668 183.388 329.706 183.702 330.59 184.292C331.473 184.881 332.161 185.719 332.568 186.7C332.974 187.68 333.081 188.759 332.873 189.799C332.666 190.84 332.155 191.796 331.403 192.546C330.652 193.297 329.695 193.808 328.653 194.015C327.612 194.222 326.532 194.115 325.55 193.709C324.569 193.303 323.73 192.616 323.14 191.733C322.55 190.851 322.235 189.814 322.235 188.753C322.241 187.332 322.809 185.971 323.815 184.966C324.821 183.961 326.183 183.394 327.606 183.388Z" fill="#516177"/>
<path d="M290.913 183.388C291.975 183.388 293.013 183.702 293.897 184.292C294.78 184.881 295.468 185.719 295.875 186.699C296.281 187.68 296.388 188.759 296.18 189.799C295.973 190.84 295.462 191.796 294.711 192.546C293.959 193.297 293.002 193.808 291.961 194.015C290.919 194.222 289.839 194.115 288.857 193.709C287.876 193.303 287.037 192.616 286.447 191.733C285.857 190.851 285.542 189.814 285.542 188.753C285.542 187.33 286.108 185.965 287.115 184.959C288.122 183.953 289.488 183.388 290.913 183.388Z" fill="#516177"/>
<path d="M254.218 183.388C255.281 183.388 256.319 183.702 257.202 184.292C258.086 184.881 258.774 185.719 259.181 186.699C259.587 187.68 259.693 188.759 259.486 189.799C259.279 190.84 258.767 191.796 258.016 192.546C257.265 193.297 256.308 193.808 255.266 194.015C254.224 194.222 253.144 194.115 252.163 193.709C251.182 193.303 250.343 192.616 249.753 191.733C249.162 190.851 248.847 189.814 248.847 188.753C248.847 188.048 248.986 187.35 249.256 186.699C249.526 186.049 249.922 185.457 250.421 184.959C250.919 184.461 251.511 184.066 252.163 183.796C252.815 183.526 253.513 183.388 254.218 183.388Z" fill="#516177"/>
<path d="M217.549 183.388C218.612 183.388 219.65 183.702 220.533 184.292C221.417 184.881 222.105 185.719 222.512 186.699C222.918 187.68 223.024 188.759 222.817 189.799C222.61 190.84 222.098 191.796 221.347 192.546C220.596 193.297 219.639 193.808 218.597 194.015C217.555 194.222 216.475 194.115 215.494 193.709C214.513 193.303 213.674 192.616 213.084 191.733C212.493 190.851 212.178 189.814 212.178 188.753C212.178 187.33 212.744 185.965 213.752 184.959C214.759 183.953 216.125 183.388 217.549 183.388Z" fill="white"/>
<path d="M327.606 146.734C328.668 146.734 329.706 147.049 330.59 147.639C331.473 148.228 332.161 149.066 332.568 150.046C332.974 151.027 333.081 152.105 332.873 153.146C332.666 154.187 332.155 155.143 331.403 155.893C330.652 156.644 329.695 157.154 328.653 157.362C327.612 157.569 326.532 157.462 325.55 157.056C324.569 156.65 323.73 155.962 323.14 155.08C322.55 154.198 322.235 153.161 322.235 152.1C322.235 150.677 322.8 149.312 323.808 148.306C324.815 147.3 326.181 146.734 327.606 146.734Z" fill="#516177"/>
<path d="M290.913 146.734C291.975 146.734 293.013 147.049 293.897 147.639C294.78 148.228 295.468 149.066 295.875 150.046C296.281 151.027 296.388 152.105 296.18 153.146C295.973 154.187 295.462 155.143 294.711 155.893C293.959 156.644 293.002 157.154 291.961 157.362C290.919 157.569 289.839 157.462 288.857 157.056C287.876 156.65 287.037 155.962 286.447 155.08C285.857 154.198 285.542 153.161 285.542 152.1C285.539 151.394 285.675 150.695 285.944 150.043C286.213 149.39 286.608 148.797 287.108 148.299C287.607 147.8 288.2 147.405 288.854 147.136C289.507 146.868 290.206 146.731 290.913 146.734Z" fill="#516177"/>
<path d="M254.218 146.734C255.281 146.734 256.319 147.049 257.202 147.639C258.086 148.228 258.774 149.066 259.181 150.046C259.587 151.027 259.693 152.105 259.486 153.146C259.279 154.187 258.767 155.143 258.016 155.893C257.265 156.644 256.308 157.154 255.266 157.362C254.224 157.569 253.144 157.462 252.163 157.056C251.182 156.65 250.343 155.962 249.753 155.08C249.162 154.198 248.847 153.161 248.847 152.1C248.844 151.394 248.981 150.695 249.25 150.043C249.518 149.39 249.914 148.797 250.413 148.299C250.913 147.8 251.506 147.405 252.159 147.136C252.812 146.868 253.512 146.731 254.218 146.734Z" fill="#516177"/>
<path d="M217.549 146.734C218.612 146.734 219.65 147.049 220.533 147.639C221.417 148.228 222.105 149.066 222.512 150.046C222.918 151.027 223.024 152.105 222.817 153.146C222.61 154.187 222.098 155.143 221.347 155.893C220.596 156.644 219.639 157.154 218.597 157.362C217.555 157.569 216.475 157.462 215.494 157.056C214.513 156.65 213.674 155.962 213.084 155.08C212.493 154.198 212.178 153.161 212.178 152.1C212.175 151.394 212.312 150.695 212.581 150.043C212.85 149.39 213.245 148.797 213.744 148.299C214.244 147.8 214.837 147.405 215.49 147.136C216.143 146.868 216.843 146.731 217.549 146.734Z" fill="white"/>
<path d="M327.606 109.959C328.668 109.959 329.706 110.274 330.59 110.864C331.473 111.453 332.161 112.291 332.568 113.271C332.974 114.252 333.081 115.33 332.873 116.371C332.666 117.412 332.155 118.368 331.403 119.118C330.652 119.868 329.695 120.379 328.653 120.586C327.612 120.793 326.532 120.687 325.55 120.281C324.569 119.875 323.73 119.187 323.14 118.305C322.55 117.423 322.235 116.386 322.235 115.324C322.241 113.904 322.809 112.543 323.815 111.538C324.821 110.533 326.183 109.966 327.606 109.959Z" fill="#516177"/>
<path d="M290.913 109.959C291.975 109.959 293.013 110.274 293.897 110.863C294.78 111.453 295.468 112.291 295.875 113.271C296.281 114.252 296.388 115.33 296.18 116.371C295.973 117.412 295.462 118.368 294.711 119.118C293.959 119.868 293.002 120.379 291.961 120.586C290.919 120.793 289.839 120.687 288.857 120.281C287.876 119.875 287.037 119.187 286.447 118.305C285.857 117.423 285.542 116.385 285.542 115.324C285.542 113.901 286.108 112.537 287.115 111.531C288.122 110.525 289.488 109.959 290.913 109.959Z" fill="#516177"/>
<path d="M254.218 109.959C255.281 109.959 256.319 110.274 257.202 110.863C258.086 111.453 258.774 112.291 259.181 113.271C259.587 114.252 259.693 115.33 259.486 116.371C259.279 117.412 258.767 118.368 258.016 119.118C257.265 119.868 256.308 120.379 255.266 120.586C254.224 120.793 253.144 120.687 252.163 120.281C251.182 119.875 250.343 119.187 249.753 118.305C249.162 117.423 248.847 116.385 248.847 115.324C248.847 114.62 248.986 113.922 249.256 113.271C249.526 112.62 249.922 112.029 250.421 111.531C250.919 111.033 251.511 110.637 252.163 110.368C252.815 110.098 253.513 109.959 254.218 109.959Z" fill="#516177"/>
<path d="M217.549 109.959C218.612 109.959 219.65 110.274 220.533 110.863C221.417 111.453 222.105 112.291 222.512 113.271C222.918 114.252 223.024 115.33 222.817 116.371C222.61 117.412 222.098 118.368 221.347 119.118C220.596 119.868 219.639 120.379 218.597 120.586C217.555 120.793 216.475 120.687 215.494 120.281C214.513 119.875 213.674 119.187 213.084 118.305C212.493 117.423 212.178 116.385 212.178 115.324C212.178 113.901 212.744 112.537 213.752 111.531C214.759 110.525 216.125 109.959 217.549 109.959Z" fill="white"/>
<path d="M327.606 73.3063C328.668 73.3063 329.706 73.6209 330.59 74.2104C331.473 74.8 332.161 75.6379 332.568 76.6182C332.974 77.5985 333.081 78.6773 332.873 79.718C332.666 80.7587 332.155 81.7147 331.403 82.465C330.652 83.2153 329.695 83.7263 328.653 83.9333C327.612 84.1403 326.532 84.0341 325.55 83.628C324.569 83.2219 323.73 82.5343 323.14 81.652C322.55 80.7697 322.235 79.7324 322.235 78.6713C322.241 77.2504 322.809 75.8895 323.815 74.8847C324.821 73.88 326.183 73.3127 327.606 73.3063Z" fill="#516177"/>
<path d="M290.913 73.3063C291.975 73.3063 293.013 73.6209 293.897 74.2104C294.78 74.8 295.468 75.6379 295.875 76.6182C296.281 77.5985 296.388 78.6773 296.18 79.718C295.973 80.7587 295.462 81.7147 294.711 82.465C293.959 83.2153 293.002 83.7263 291.961 83.9333C290.919 84.1403 289.839 84.0341 288.857 83.628C287.876 83.2219 287.037 82.5343 286.447 81.652C285.857 80.7697 285.542 79.7324 285.542 78.6713C285.542 77.2484 286.108 75.8838 287.115 74.8776C288.122 73.8715 289.488 73.3063 290.913 73.3063Z" fill="#516177"/>
<path d="M254.218 73.3063C255.281 73.3063 256.319 73.6209 257.202 74.2104C258.086 74.8 258.774 75.6379 259.181 76.6182C259.587 77.5985 259.693 78.6773 259.486 79.718C259.279 80.7587 258.767 81.7147 258.016 82.465C257.265 83.2153 256.308 83.7263 255.266 83.9333C254.224 84.1403 253.144 84.0341 252.163 83.628C251.182 83.2219 250.343 82.5343 249.753 81.652C249.162 80.7697 248.847 79.7324 248.847 78.6713C248.847 77.9668 248.986 77.2691 249.256 76.6182C249.526 75.9673 249.922 75.3758 250.421 74.8776C250.919 74.3795 251.511 73.9843 252.163 73.7147C252.815 73.445 253.513 73.3063 254.218 73.3063Z" fill="#516177"/>
<path d="M217.549 73.3063C218.612 73.3063 219.65 73.6209 220.533 74.2104C221.417 74.8 222.105 75.6379 222.512 76.6182C222.918 77.5985 223.024 78.6773 222.817 79.718C222.61 80.7587 222.098 81.7147 221.347 82.465C220.596 83.2153 219.639 83.7263 218.597 83.9333C217.555 84.1403 216.475 84.0341 215.494 83.628C214.513 83.2219 213.674 82.5343 213.084 81.652C212.493 80.7697 212.178 79.7324 212.178 78.6713C212.178 77.2484 212.744 75.8838 213.752 74.8776C214.759 73.8715 216.125 73.3063 217.549 73.3063Z" fill="white"/>
<path d="M327.606 36.6532C328.668 36.6532 329.706 36.9678 330.59 37.5573C331.473 38.1469 332.161 38.9848 332.568 39.9651C332.974 40.9454 333.081 42.0242 332.873 43.0649C332.666 44.1056 332.155 45.0616 331.403 45.8119C330.652 46.5622 329.695 47.0732 328.653 47.2802C327.612 47.4872 326.532 47.381 325.55 46.9749C324.569 46.5688 323.73 45.8812 323.14 44.9989C322.55 44.1166 322.235 43.0793 322.235 42.0182C322.241 40.5973 322.809 39.2364 323.815 38.2316C324.821 37.2269 326.183 36.6596 327.606 36.6532Z" fill="#516177"/>
<path d="M290.913 36.6532C291.975 36.6532 293.013 36.9678 293.897 37.5573C294.78 38.1469 295.468 38.9848 295.875 39.9651C296.281 40.9454 296.388 42.0242 296.18 43.0649C295.973 44.1056 295.462 45.0616 294.711 45.8119C293.959 46.5622 293.002 47.0732 291.961 47.2802C290.919 47.4872 289.839 47.381 288.857 46.9749C287.876 46.5688 287.037 45.8812 286.447 44.9989C285.857 44.1166 285.542 43.0793 285.542 42.0182C285.542 40.5953 286.108 39.2307 287.115 38.2246C288.122 37.2184 289.488 36.6532 290.913 36.6532Z" fill="#516177"/>
<path d="M254.218 36.6532C255.281 36.6532 256.319 36.9678 257.202 37.5573C258.086 38.1469 258.774 38.9848 259.181 39.9651C259.587 40.9454 259.693 42.0242 259.486 43.0649C259.279 44.1056 258.767 45.0616 258.016 45.8119C257.265 46.5622 256.308 47.0732 255.266 47.2802C254.224 47.4872 253.144 47.381 252.163 46.9749C251.182 46.5688 250.343 45.8812 249.753 44.9989C249.162 44.1166 248.847 43.0793 248.847 42.0182C248.847 41.3137 248.986 40.616 249.256 39.9651C249.526 39.3142 249.922 38.7227 250.421 38.2246C250.919 37.7264 251.511 37.3312 252.163 37.0616C252.815 36.7919 253.513 36.6532 254.218 36.6532Z" fill="#516177"/>
<path d="M217.549 36.6532C218.612 36.6532 219.65 36.9678 220.533 37.5573C221.417 38.1469 222.105 38.9848 222.512 39.9651C222.918 40.9454 223.024 42.0242 222.817 43.0649C222.61 44.1056 222.098 45.0616 221.347 45.8119C220.596 46.5622 219.639 47.0732 218.597 47.2802C217.555 47.4872 216.475 47.381 215.494 46.9749C214.513 46.5688 213.674 45.8812 213.084 44.9989C212.493 44.1166 212.178 43.0793 212.178 42.0182C212.178 40.5953 212.744 39.2307 213.752 38.2246C214.759 37.2184 216.125 36.6532 217.549 36.6532Z" fill="white"/>
<path d="M327.606 0C328.669 1.14441e-05 329.708 0.315297 330.592 0.905903C331.476 1.49651 332.164 2.33583 332.57 3.31759C332.976 4.29935 333.081 5.37935 332.872 6.42073C332.662 7.46211 332.148 8.41801 331.395 9.16735C330.641 9.91669 329.682 10.4257 328.638 10.63C327.595 10.8342 326.514 10.7245 325.533 10.3147C324.552 9.90487 323.715 9.21342 323.128 8.32794C322.541 7.44246 322.23 6.40281 322.235 5.34068C322.241 3.92201 322.81 2.56363 323.816 1.56275C324.823 0.561877 326.185 -1.43051e-05 327.606 0Z" fill="#516177"/>
<path d="M290.913 -9.63211e-05C291.976 -8.58307e-05 293.015 0.3152 293.899 0.905804C294.783 1.49641 295.471 2.33573 295.877 3.31748C296.283 4.29924 296.388 5.37924 296.179 6.42062C295.969 7.46199 295.455 8.4179 294.702 9.16723C293.948 9.91657 292.989 10.4256 291.946 10.6298C290.902 10.8341 289.821 10.7244 288.84 10.3146C287.859 9.90475 287.022 9.21331 286.435 8.32783C285.848 7.44235 285.537 6.4027 285.542 5.34057C285.542 4.63717 285.681 3.94069 285.951 3.29114C286.221 2.64159 286.617 2.05172 287.116 1.55547C287.615 1.05922 288.208 0.666355 288.859 0.3994C289.511 0.132445 290.209 -0.0033083 290.913 -9.63211e-05Z" fill="#516177"/>
<path d="M254.218 -9.63211e-05C255.282 -8.58307e-05 256.321 0.3152 257.205 0.905804C258.089 1.49641 258.777 2.33573 259.183 3.31748C259.589 4.29924 259.694 5.37924 259.484 6.42062C259.275 7.46199 258.761 8.4179 258.008 9.16723C257.254 9.91657 256.295 10.4256 255.251 10.6298C254.208 10.8341 253.127 10.7244 252.146 10.3146C251.165 9.90475 250.328 9.21331 249.741 8.32783C249.154 7.44235 248.843 6.4027 248.847 5.34057C248.847 4.63717 248.987 3.94069 249.257 3.29114C249.527 2.64159 249.923 2.05172 250.422 1.55547C250.921 1.05922 251.513 0.666355 252.165 0.3994C252.816 0.132445 253.514 -0.0033083 254.218 -9.63211e-05Z" fill="#516177"/>
<path d="M217.549 -9.63211e-05C218.613 -8.58307e-05 219.652 0.3152 220.536 0.905804C221.42 1.49641 222.108 2.33573 222.514 3.31748C222.92 4.29924 223.025 5.37924 222.815 6.42062C222.606 7.46199 222.092 8.4179 221.339 9.16723C220.585 9.91657 219.626 10.4256 218.582 10.6298C217.539 10.8341 216.458 10.7244 215.477 10.3146C214.496 9.90475 213.659 9.21331 213.072 8.32783C212.485 7.44235 212.174 6.4027 212.179 5.34057C212.179 4.63717 212.318 3.94069 212.588 3.29114C212.858 2.64159 213.254 2.05172 213.753 1.55547C214.252 1.05922 214.844 0.666355 215.496 0.3994C216.147 0.132445 216.845 -0.0033083 217.549 -9.63211e-05Z" fill="white"/>
</svg>
