<svg width="332" height="331" viewBox="0 0 332 331" fill="none" xmlns="http://www.w3.org/2000/svg">
<path d="M331.976 0H98.0178V235.087H331.976V0Z" fill="#BCF0ED"/>
<path d="M151.688 37.6286C150.629 37.6286 149.594 37.314 148.713 36.7245C147.833 36.1349 147.146 35.297 146.741 34.3167C146.336 33.3363 146.23 32.2576 146.436 31.2169C146.643 30.1762 147.153 29.2202 147.902 28.4699C148.651 27.7196 149.605 27.2086 150.643 27.0016C151.682 26.7946 152.759 26.9008 153.737 27.3069C154.716 27.713 155.552 28.4006 156.14 29.2829C156.729 30.1652 157.043 31.2025 157.043 32.2636C157.037 33.6845 156.47 35.0454 155.467 36.0501C154.465 37.0549 153.106 37.6222 151.688 37.6286Z" fill="white"/>
<path d="M188.271 37.6286C187.212 37.6286 186.177 37.314 185.296 36.7245C184.416 36.1349 183.729 35.297 183.324 34.3167C182.919 33.3363 182.813 32.2576 183.019 31.2169C183.226 30.1762 183.736 29.2202 184.485 28.4699C185.234 27.7196 186.188 27.2086 187.226 27.0016C188.265 26.7946 189.342 26.9008 190.32 27.3069C191.299 27.713 192.135 28.4006 192.723 29.2829C193.312 30.1652 193.626 31.2025 193.626 32.2636C193.62 33.6845 193.053 35.0454 192.05 36.0501C191.048 37.0549 189.689 37.6222 188.271 37.6286Z" fill="white"/>
<path d="M224.855 37.6286C223.796 37.6286 222.76 37.314 221.88 36.7245C220.999 36.1349 220.313 35.297 219.908 34.3167C219.502 33.3363 219.396 32.2576 219.603 31.2169C219.81 30.1762 220.32 29.2202 221.068 28.4699C221.817 27.7196 222.771 27.2086 223.81 27.0016C224.849 26.7946 225.926 26.9008 226.904 27.3069C227.882 27.713 228.719 28.4006 229.307 29.2829C229.896 30.1652 230.21 31.2025 230.21 32.2636C230.203 33.6845 229.637 35.0454 228.634 36.0501C227.631 37.0549 226.273 37.6222 224.855 37.6286Z" fill="white"/>
<path d="M261.438 37.6286C260.379 37.6286 259.343 37.314 258.463 36.7245C257.582 36.1349 256.896 35.297 256.491 34.3167C256.085 33.3363 255.979 32.2576 256.186 31.2169C256.393 30.1762 256.903 29.2202 257.651 28.4699C258.4 27.7196 259.354 27.2086 260.393 27.0016C261.432 26.7946 262.509 26.9008 263.487 27.3069C264.466 27.713 265.302 28.4006 265.89 29.2829C266.479 30.1652 266.793 31.2025 266.793 32.2636C266.786 33.6845 266.22 35.0454 265.217 36.0501C264.214 37.0549 262.856 37.6222 261.438 37.6286Z" fill="white"/>
<path d="M298.021 37.6286C296.962 37.6286 295.927 37.314 295.046 36.7245C294.166 36.1349 293.479 35.297 293.074 34.3167C292.669 33.3363 292.563 32.2576 292.769 31.2169C292.976 30.1762 293.486 29.2202 294.235 28.4699C294.984 27.7196 295.938 27.2086 296.977 27.0016C298.015 26.7946 299.092 26.9008 300.071 27.3069C301.049 27.713 301.885 28.4006 302.474 29.2829C303.062 30.1652 303.376 31.2025 303.376 32.2636C303.376 32.9681 303.238 33.6658 302.969 34.3167C302.699 34.9676 302.305 35.559 301.808 36.0572C301.311 36.5554 300.72 36.9506 300.071 37.2202C299.421 37.4899 298.725 37.6286 298.021 37.6286Z" fill="white"/>
<path d="M151.688 74.2818C150.628 74.2818 149.592 73.9665 148.711 73.3759C147.829 72.7853 147.143 71.9459 146.739 70.9641C146.334 69.9824 146.229 68.9024 146.438 67.861C146.647 66.8196 147.159 65.8637 147.91 65.1144C148.662 64.3651 149.618 63.856 150.658 63.6518C151.699 63.4475 152.776 63.5572 153.754 63.9671C154.732 64.3769 155.567 65.0683 156.152 65.9538C156.738 66.8393 157.048 67.879 157.043 68.9411C157.036 70.3598 156.469 71.7181 155.466 72.719C154.462 73.7199 153.104 74.2818 151.688 74.2818Z" fill="white"/>
<path d="M188.271 74.2818C187.211 74.2818 186.175 73.9665 185.294 73.3759C184.412 72.7853 183.726 71.9459 183.322 70.9641C182.917 69.9824 182.812 68.9024 183.021 67.861C183.23 66.8196 183.742 65.8637 184.493 65.1144C185.245 64.3651 186.201 63.856 187.241 63.6518C188.282 63.4475 189.359 63.5572 190.337 63.9671C191.315 64.3769 192.15 65.0683 192.735 65.9538C193.321 66.8393 193.631 67.879 193.626 68.9411C193.619 70.3598 193.052 71.7181 192.049 72.719C191.045 73.7199 189.687 74.2818 188.271 74.2818Z" fill="white"/>
<path d="M224.855 74.2818C223.795 74.2818 222.758 73.9665 221.877 73.3759C220.996 72.7853 220.31 71.9459 219.905 70.9641C219.501 69.9824 219.396 68.9024 219.605 67.861C219.813 66.8196 220.326 65.8637 221.077 65.1144C221.828 64.3651 222.785 63.856 223.825 63.6518C224.865 63.4475 225.943 63.5572 226.921 63.9671C227.899 64.3769 228.734 65.0683 229.319 65.9538C229.904 66.8393 230.214 67.879 230.21 68.9411C230.203 70.3598 229.636 71.7181 228.633 72.719C227.629 73.7199 226.271 74.2818 224.855 74.2818Z" fill="white"/>
<path d="M261.438 74.2818C260.378 74.2818 259.341 73.9665 258.46 73.3759C257.579 72.7853 256.893 71.9459 256.488 70.9641C256.084 69.9824 255.979 68.9024 256.188 67.861C256.396 66.8196 256.909 65.8637 257.66 65.1144C258.411 64.3651 259.368 63.856 260.408 63.6518C261.448 63.4475 262.526 63.5572 263.504 63.9671C264.482 64.3769 265.317 65.0683 265.902 65.9538C266.487 66.8393 266.797 67.879 266.793 68.9411C266.786 70.3598 266.219 71.7181 265.216 72.719C264.212 73.7199 262.854 74.2818 261.438 74.2818Z" fill="white"/>
<path d="M298.022 74.2818C296.961 74.2817 295.925 73.9665 295.044 73.3759C294.163 72.7853 293.477 71.9459 293.072 70.9641C292.667 69.9824 292.563 68.9024 292.771 67.861C292.98 66.8196 293.492 65.8637 294.244 65.1144C294.995 64.3651 295.952 63.856 296.992 63.6518C298.032 63.4475 299.11 63.5572 300.088 63.9671C301.066 64.3769 301.9 65.0683 302.486 65.9538C303.071 66.8393 303.381 67.879 303.376 68.9411C303.376 69.6445 303.238 70.341 302.968 70.9905C302.699 71.6401 302.304 72.2299 301.806 72.7262C301.309 73.2224 300.718 73.6153 300.069 73.8822C299.419 74.1492 298.724 74.285 298.022 74.2818Z" fill="white"/>
<path d="M151.688 110.959C150.629 110.959 149.594 110.645 148.713 110.055C147.833 109.466 147.146 108.628 146.741 107.647C146.336 106.667 146.23 105.588 146.436 104.548C146.643 103.507 147.153 102.551 147.902 101.801C148.651 101.05 149.605 100.539 150.643 100.332C151.682 100.125 152.759 100.231 153.737 100.638C154.716 101.044 155.552 101.731 156.14 102.614C156.729 103.496 157.043 104.533 157.043 105.594C157.037 107.015 156.47 108.376 155.467 109.381C154.465 110.386 153.106 110.953 151.688 110.959Z" fill="white"/>
<path d="M188.271 110.959C187.212 110.959 186.177 110.645 185.296 110.055C184.416 109.466 183.729 108.628 183.324 107.647C182.919 106.667 182.813 105.588 183.019 104.548C183.226 103.507 183.736 102.551 184.485 101.801C185.234 101.05 186.188 100.539 187.226 100.332C188.265 100.125 189.342 100.231 190.32 100.638C191.299 101.044 192.135 101.731 192.723 102.614C193.312 103.496 193.626 104.533 193.626 105.594C193.62 107.015 193.053 108.376 192.05 109.381C191.048 110.386 189.689 110.953 188.271 110.959Z" fill="white"/>
<path d="M224.855 110.959C223.796 110.959 222.76 110.645 221.88 110.055C220.999 109.466 220.313 108.628 219.908 107.647C219.502 106.667 219.396 105.588 219.603 104.548C219.81 103.507 220.32 102.551 221.068 101.801C221.817 101.05 222.771 100.539 223.81 100.332C224.849 100.125 225.926 100.231 226.904 100.638C227.882 101.044 228.719 101.731 229.307 102.614C229.896 103.496 230.21 104.533 230.21 105.594C230.203 107.015 229.637 108.376 228.634 109.381C227.631 110.386 226.273 110.953 224.855 110.959Z" fill="white"/>
<path d="M261.438 110.959C260.379 110.959 259.343 110.645 258.463 110.055C257.582 109.466 256.896 108.628 256.491 107.647C256.085 106.667 255.979 105.588 256.186 104.548C256.393 103.507 256.903 102.551 257.651 101.801C258.4 101.05 259.354 100.539 260.393 100.332C261.432 100.125 262.509 100.231 263.487 100.638C264.466 101.044 265.302 101.731 265.89 102.614C266.479 103.496 266.793 104.533 266.793 105.594C266.786 107.015 266.22 108.376 265.217 109.381C264.214 110.386 262.856 110.953 261.438 110.959Z" fill="white"/>
<path d="M298.021 110.959C296.962 110.959 295.927 110.645 295.046 110.055C294.166 109.466 293.479 108.628 293.074 107.647C292.669 106.667 292.563 105.588 292.769 104.548C292.976 103.507 293.486 102.551 294.235 101.801C294.984 101.05 295.938 100.539 296.977 100.332C298.015 100.125 299.092 100.231 300.071 100.638C301.049 101.044 301.885 101.731 302.474 102.614C303.062 103.496 303.376 104.533 303.376 105.594C303.376 106.299 303.238 106.996 302.969 107.647C302.699 108.298 302.305 108.89 301.808 109.388C301.311 109.886 300.72 110.281 300.071 110.551C299.421 110.82 298.725 110.959 298.021 110.959Z" fill="white"/>
<path d="M151.688 147.612C150.629 147.612 149.594 147.298 148.713 146.708C147.833 146.119 147.146 145.281 146.741 144.3C146.336 143.32 146.23 142.241 146.436 141.201C146.643 140.16 147.153 139.204 147.902 138.454C148.651 137.703 149.605 137.192 150.643 136.985C151.682 136.778 152.759 136.885 153.737 137.291C154.716 137.697 155.552 138.384 156.14 139.267C156.729 140.149 157.043 141.186 157.043 142.247C157.037 143.668 156.47 145.029 155.467 146.034C154.465 147.039 153.106 147.606 151.688 147.612Z" fill="white"/>
<path d="M188.271 147.612C187.212 147.612 186.177 147.298 185.296 146.708C184.416 146.119 183.729 145.281 183.324 144.3C182.919 143.32 182.813 142.241 183.019 141.201C183.226 140.16 183.736 139.204 184.485 138.454C185.234 137.703 186.188 137.192 187.226 136.985C188.265 136.778 189.342 136.885 190.32 137.291C191.299 137.697 192.135 138.384 192.723 139.267C193.312 140.149 193.626 141.186 193.626 142.247C193.62 143.668 193.053 145.029 192.05 146.034C191.048 147.039 189.689 147.606 188.271 147.612Z" fill="white"/>
<path d="M224.855 147.612C223.796 147.612 222.76 147.298 221.88 146.708C220.999 146.119 220.313 145.281 219.908 144.3C219.502 143.32 219.396 142.241 219.603 141.201C219.81 140.16 220.32 139.204 221.068 138.454C221.817 137.703 222.771 137.192 223.81 136.985C224.849 136.778 225.926 136.885 226.904 137.291C227.882 137.697 228.719 138.384 229.307 139.267C229.896 140.149 230.21 141.186 230.21 142.247C230.203 143.668 229.637 145.029 228.634 146.034C227.631 147.039 226.273 147.606 224.855 147.612Z" fill="white"/>
<path d="M261.438 147.612C260.379 147.612 259.343 147.298 258.463 146.708C257.582 146.119 256.896 145.281 256.491 144.3C256.085 143.32 255.979 142.241 256.186 141.201C256.393 140.16 256.903 139.204 257.651 138.454C258.4 137.703 259.354 137.192 260.393 136.985C261.432 136.778 262.509 136.885 263.487 137.291C264.466 137.697 265.302 138.384 265.89 139.267C266.479 140.149 266.793 141.186 266.793 142.247C266.786 143.668 266.22 145.029 265.217 146.034C264.214 147.039 262.856 147.606 261.438 147.612Z" fill="white"/>
<path d="M298.021 147.612C296.962 147.612 295.927 147.298 295.046 146.708C294.166 146.119 293.479 145.281 293.074 144.3C292.669 143.32 292.563 142.241 292.769 141.201C292.976 140.16 293.486 139.204 294.235 138.454C294.984 137.703 295.938 137.192 296.977 136.985C298.015 136.778 299.092 136.885 300.071 137.291C301.049 137.697 301.885 138.384 302.474 139.267C303.062 140.149 303.376 141.186 303.376 142.247C303.376 142.952 303.238 143.65 302.969 144.3C302.699 144.951 302.305 145.543 301.808 146.041C301.311 146.539 300.72 146.934 300.071 147.204C299.421 147.474 298.725 147.612 298.021 147.612Z" fill="white"/>
<path d="M151.688 184.266C150.629 184.266 149.594 183.951 148.713 183.361C147.833 182.772 147.146 181.934 146.741 180.954C146.336 179.973 146.23 178.895 146.436 177.854C146.643 176.813 147.153 175.857 147.902 175.107C148.651 174.356 149.605 173.846 150.643 173.638C151.682 173.431 152.759 173.538 153.737 173.944C154.716 174.35 155.552 175.038 156.14 175.92C156.729 176.802 157.043 177.839 157.043 178.9C157.043 180.323 156.479 181.688 155.475 182.694C154.47 183.7 153.108 184.266 151.688 184.266Z" fill="white"/>
<path d="M188.271 184.266C187.212 184.266 186.177 183.951 185.296 183.361C184.416 182.772 183.729 181.934 183.324 180.954C182.919 179.973 182.813 178.895 183.019 177.854C183.226 176.813 183.736 175.857 184.485 175.107C185.234 174.356 186.188 173.846 187.226 173.638C188.265 173.431 189.342 173.538 190.32 173.944C191.299 174.35 192.135 175.038 192.723 175.92C193.312 176.802 193.626 177.839 193.626 178.9C193.626 180.323 193.062 181.688 192.058 182.694C191.053 183.7 189.691 184.266 188.271 184.266Z" fill="white"/>
<path d="M224.855 184.266C223.796 184.266 222.76 183.951 221.88 183.361C220.999 182.772 220.313 181.934 219.908 180.954C219.502 179.973 219.396 178.895 219.603 177.854C219.81 176.813 220.32 175.857 221.068 175.107C221.817 174.356 222.771 173.846 223.81 173.638C224.849 173.431 225.926 173.538 226.904 173.944C227.882 174.35 228.719 175.038 229.307 175.92C229.896 176.802 230.21 177.839 230.21 178.9C230.21 180.323 229.646 181.688 228.641 182.694C227.637 183.7 226.275 184.266 224.855 184.266Z" fill="white"/>
<path d="M261.438 184.266C260.379 184.266 259.343 183.951 258.463 183.361C257.582 182.772 256.896 181.934 256.491 180.954C256.085 179.973 255.979 178.895 256.186 177.854C256.393 176.813 256.903 175.857 257.651 175.107C258.4 174.356 259.354 173.846 260.393 173.638C261.432 173.431 262.509 173.538 263.487 173.944C264.466 174.35 265.302 175.038 265.89 175.92C266.479 176.802 266.793 177.839 266.793 178.9C266.793 180.323 266.229 181.688 265.224 182.694C264.22 183.7 262.858 184.266 261.438 184.266Z" fill="white"/>
<path d="M298.021 184.266C296.962 184.266 295.927 183.951 295.046 183.361C294.166 182.772 293.479 181.934 293.074 180.954C292.669 179.973 292.563 178.895 292.769 177.854C292.976 176.813 293.486 175.857 294.235 175.107C294.984 174.356 295.938 173.846 296.977 173.638C298.015 173.431 299.092 173.538 300.071 173.944C301.049 174.35 301.885 175.038 302.474 175.92C303.062 176.802 303.376 177.839 303.376 178.9C303.379 179.606 303.243 180.305 302.975 180.957C302.707 181.61 302.313 182.203 301.815 182.701C301.317 183.2 300.725 183.595 300.074 183.864C299.423 184.132 298.725 184.269 298.021 184.266Z" fill="white"/>
<path d="M151.688 221.041C150.629 221.041 149.594 220.726 148.713 220.136C147.833 219.547 147.146 218.709 146.741 217.729C146.336 216.748 146.23 215.67 146.436 214.629C146.643 213.588 147.153 212.632 147.902 211.882C148.651 211.132 149.605 210.621 150.643 210.414C151.682 210.207 152.759 210.313 153.737 210.719C154.716 211.125 155.552 211.813 156.14 212.695C156.729 213.577 157.043 214.614 157.043 215.676C157.037 217.096 156.47 218.457 155.467 219.462C154.465 220.467 153.106 221.034 151.688 221.041Z" fill="white"/>
<path d="M188.271 221.041C187.212 221.041 186.177 220.726 185.296 220.136C184.416 219.547 183.729 218.709 183.324 217.729C182.919 216.748 182.813 215.67 183.019 214.629C183.226 213.588 183.736 212.632 184.485 211.882C185.234 211.132 186.188 210.621 187.226 210.414C188.265 210.207 189.342 210.313 190.32 210.719C191.299 211.125 192.135 211.813 192.723 212.695C193.312 213.577 193.626 214.614 193.626 215.676C193.62 217.096 193.053 218.457 192.05 219.462C191.048 220.467 189.689 221.034 188.271 221.041Z" fill="white"/>
<path d="M224.855 221.041C223.796 221.041 222.76 220.726 221.88 220.136C220.999 219.547 220.313 218.709 219.908 217.729C219.502 216.748 219.396 215.67 219.603 214.629C219.81 213.588 220.32 212.632 221.068 211.882C221.817 211.132 222.771 210.621 223.81 210.414C224.849 210.207 225.926 210.313 226.904 210.719C227.882 211.125 228.719 211.813 229.307 212.695C229.896 213.577 230.21 214.614 230.21 215.676C230.203 217.096 229.637 218.457 228.634 219.462C227.631 220.467 226.273 221.034 224.855 221.041Z" fill="white"/>
<path d="M261.438 221.041C260.379 221.041 259.343 220.726 258.463 220.136C257.582 219.547 256.896 218.709 256.491 217.729C256.085 216.748 255.979 215.67 256.186 214.629C256.393 213.588 256.903 212.632 257.651 211.882C258.4 211.132 259.354 210.621 260.393 210.414C261.432 210.207 262.509 210.313 263.487 210.719C264.466 211.125 265.302 211.813 265.89 212.695C266.479 213.577 266.793 214.614 266.793 215.676C266.786 217.096 266.22 218.457 265.217 219.462C264.214 220.467 262.856 221.034 261.438 221.041Z" fill="white"/>
<path d="M298.021 221.041C296.962 221.041 295.927 220.726 295.046 220.136C294.166 219.547 293.479 218.709 293.074 217.729C292.669 216.748 292.563 215.67 292.769 214.629C292.976 213.588 293.486 212.632 294.235 211.882C294.984 211.132 295.938 210.621 296.977 210.414C298.015 210.207 299.092 210.313 300.071 210.719C301.049 211.125 301.885 211.813 302.474 212.695C303.062 213.577 303.376 214.614 303.376 215.676C303.376 216.38 303.238 217.078 302.969 217.729C302.699 218.38 302.305 218.971 301.808 219.469C301.311 219.967 300.72 220.363 300.071 220.632C299.421 220.902 298.725 221.041 298.021 221.041Z" fill="white"/>
<path d="M151.688 257.694C150.629 257.694 149.594 257.379 148.713 256.79C147.833 256.2 147.146 255.362 146.741 254.382C146.336 253.401 146.23 252.323 146.436 251.282C146.643 250.241 147.153 249.285 147.902 248.535C148.651 247.785 149.605 247.274 150.643 247.067C151.682 246.86 152.759 246.966 153.737 247.372C154.716 247.778 155.552 248.466 156.14 249.348C156.729 250.23 157.043 251.268 157.043 252.329C157.037 253.75 156.47 255.111 155.467 256.115C154.465 257.12 153.106 257.687 151.688 257.694Z" fill="white"/>
<path d="M188.271 257.694C187.212 257.694 186.177 257.379 185.296 256.79C184.416 256.2 183.729 255.362 183.324 254.382C182.919 253.401 182.813 252.323 183.019 251.282C183.226 250.241 183.736 249.285 184.485 248.535C185.234 247.785 186.188 247.274 187.226 247.067C188.265 246.86 189.342 246.966 190.32 247.372C191.299 247.778 192.135 248.466 192.723 249.348C193.312 250.23 193.626 251.268 193.626 252.329C193.62 253.75 193.053 255.111 192.05 256.115C191.048 257.12 189.689 257.687 188.271 257.694Z" fill="white"/>
<path d="M224.855 257.694C223.796 257.694 222.76 257.379 221.88 256.79C220.999 256.2 220.313 255.362 219.908 254.382C219.502 253.401 219.396 252.323 219.603 251.282C219.81 250.241 220.32 249.285 221.068 248.535C221.817 247.785 222.771 247.274 223.81 247.067C224.849 246.86 225.926 246.966 226.904 247.372C227.882 247.778 228.719 248.466 229.307 249.348C229.896 250.23 230.21 251.268 230.21 252.329C230.203 253.75 229.637 255.111 228.634 256.115C227.631 257.12 226.273 257.687 224.855 257.694Z" fill="white"/>
<path d="M261.438 257.694C260.379 257.694 259.343 257.379 258.463 256.79C257.582 256.2 256.896 255.362 256.491 254.382C256.085 253.401 255.979 252.323 256.186 251.282C256.393 250.241 256.903 249.285 257.651 248.535C258.4 247.785 259.354 247.274 260.393 247.067C261.432 246.86 262.509 246.966 263.487 247.372C264.466 247.778 265.302 248.466 265.89 249.348C266.479 250.23 266.793 251.268 266.793 252.329C266.786 253.75 266.22 255.111 265.217 256.115C264.214 257.12 262.856 257.687 261.438 257.694Z" fill="white"/>
<path d="M298.021 257.694C296.962 257.694 295.927 257.379 295.046 256.79C294.166 256.2 293.479 255.362 293.074 254.382C292.669 253.401 292.563 252.323 292.769 251.282C292.976 250.241 293.486 249.285 294.235 248.535C294.984 247.785 295.938 247.274 296.977 247.067C298.015 246.86 299.092 246.966 300.071 247.372C301.049 247.778 301.885 248.466 302.474 249.348C303.062 250.23 303.376 251.268 303.376 252.329C303.376 253.033 303.238 253.731 302.969 254.382C302.699 255.033 302.305 255.624 301.808 256.122C301.311 256.621 300.72 257.016 300.071 257.285C299.421 257.555 298.725 257.694 298.021 257.694Z" fill="white"/>
<path d="M151.688 294.347C150.629 294.347 149.594 294.032 148.713 293.443C147.833 292.853 147.146 292.015 146.741 291.035C146.336 290.055 146.23 288.976 146.436 287.935C146.643 286.894 147.153 285.938 147.902 285.188C148.651 284.438 149.605 283.927 150.643 283.72C151.682 283.513 152.759 283.619 153.737 284.025C154.716 284.431 155.552 285.119 156.14 286.001C156.729 286.883 157.043 287.921 157.043 288.982C157.037 290.403 156.47 291.764 155.467 292.768C154.465 293.773 153.106 294.34 151.688 294.347Z" fill="white"/>
<path d="M188.271 294.347C187.212 294.347 186.177 294.032 185.296 293.443C184.416 292.853 183.729 292.015 183.324 291.035C182.919 290.055 182.813 288.976 183.019 287.935C183.226 286.894 183.736 285.938 184.485 285.188C185.234 284.438 186.188 283.927 187.226 283.72C188.265 283.513 189.342 283.619 190.32 284.025C191.299 284.431 192.135 285.119 192.723 286.001C193.312 286.883 193.626 287.921 193.626 288.982C193.62 290.403 193.053 291.764 192.05 292.768C191.048 293.773 189.689 294.34 188.271 294.347Z" fill="white"/>
<path d="M224.855 294.347C223.796 294.347 222.76 294.032 221.88 293.443C220.999 292.853 220.313 292.015 219.908 291.035C219.502 290.055 219.396 288.976 219.603 287.935C219.81 286.894 220.32 285.938 221.068 285.188C221.817 284.438 222.771 283.927 223.81 283.72C224.849 283.513 225.926 283.619 226.904 284.025C227.882 284.431 228.719 285.119 229.307 286.001C229.896 286.883 230.21 287.921 230.21 288.982C230.203 290.403 229.637 291.764 228.634 292.768C227.631 293.773 226.273 294.34 224.855 294.347Z" fill="white"/>
<path d="M261.438 294.347C260.379 294.347 259.343 294.032 258.463 293.443C257.582 292.853 256.896 292.015 256.491 291.035C256.085 290.055 255.979 288.976 256.186 287.935C256.393 286.894 256.903 285.938 257.651 285.188C258.4 284.438 259.354 283.927 260.393 283.72C261.432 283.513 262.509 283.619 263.487 284.025C264.466 284.431 265.302 285.119 265.89 286.001C266.479 286.883 266.793 287.921 266.793 288.982C266.786 290.403 266.22 291.764 265.217 292.768C264.214 293.773 262.856 294.34 261.438 294.347Z" fill="white"/>
<path d="M298.021 294.347C296.962 294.347 295.927 294.032 295.046 293.443C294.166 292.853 293.479 292.015 293.074 291.035C292.669 290.055 292.563 288.976 292.769 287.935C292.976 286.894 293.486 285.938 294.235 285.188C294.984 284.438 295.938 283.927 296.977 283.72C298.015 283.513 299.092 283.619 300.071 284.025C301.049 284.431 301.885 285.119 302.474 286.001C303.062 286.883 303.376 287.921 303.376 288.982C303.376 289.686 303.238 290.384 302.969 291.035C302.699 291.686 302.305 292.277 301.808 292.775C301.311 293.274 300.72 293.669 300.071 293.938C299.421 294.208 298.725 294.347 298.021 294.347Z" fill="white"/>
<path d="M151.688 331C150.628 331 149.592 330.685 148.711 330.094C147.829 329.503 147.143 328.664 146.739 327.682C146.334 326.701 146.229 325.621 146.438 324.579C146.647 323.538 147.159 322.582 147.91 321.833C148.662 321.083 149.618 320.574 150.658 320.37C151.699 320.166 152.776 320.276 153.754 320.685C154.732 321.095 155.567 321.787 156.152 322.672C156.738 323.558 157.048 324.597 157.043 325.659C157.036 327.078 156.469 328.436 155.466 329.437C154.462 330.438 153.104 331 151.688 331Z" fill="white"/>
<path d="M188.271 331C187.211 331 186.175 330.685 185.294 330.094C184.412 329.503 183.726 328.664 183.322 327.682C182.917 326.701 182.812 325.621 183.021 324.579C183.23 323.538 183.742 322.582 184.493 321.833C185.245 321.083 186.201 320.574 187.241 320.37C188.282 320.166 189.359 320.276 190.337 320.685C191.315 321.095 192.15 321.787 192.735 322.672C193.321 323.558 193.631 324.597 193.626 325.659C193.619 327.078 193.052 328.436 192.049 329.437C191.045 330.438 189.687 331 188.271 331Z" fill="white"/>
<path d="M224.855 331C223.795 331 222.758 330.685 221.877 330.094C220.996 329.503 220.31 328.664 219.905 327.682C219.501 326.701 219.396 325.621 219.605 324.579C219.813 323.538 220.326 322.582 221.077 321.833C221.828 321.083 222.785 320.574 223.825 320.37C224.865 320.166 225.943 320.276 226.921 320.685C227.899 321.095 228.734 321.787 229.319 322.672C229.904 323.558 230.214 324.597 230.21 325.659C230.203 327.078 229.636 328.436 228.633 329.437C227.629 330.438 226.271 331 224.855 331Z" fill="white"/>
<path d="M261.438 331C260.378 331 259.341 330.685 258.46 330.094C257.579 329.503 256.893 328.664 256.488 327.682C256.084 326.701 255.979 325.621 256.188 324.579C256.396 323.538 256.909 322.582 257.66 321.833C258.411 321.083 259.368 320.574 260.408 320.37C261.448 320.166 262.526 320.276 263.504 320.685C264.482 321.095 265.317 321.787 265.902 322.672C266.487 323.558 266.797 324.597 266.793 325.659C266.786 327.078 266.219 328.436 265.216 329.437C264.212 330.438 262.854 331 261.438 331Z" fill="white"/>
<path d="M298.022 331C296.961 331 295.925 330.685 295.044 330.094C294.163 329.503 293.477 328.664 293.072 327.682C292.667 326.701 292.563 325.621 292.771 324.579C292.98 323.538 293.492 322.582 294.244 321.833C294.995 321.083 295.952 320.574 296.992 320.37C298.032 320.166 299.11 320.276 300.088 320.685C301.066 321.095 301.9 321.787 302.486 322.672C303.071 323.558 303.381 324.597 303.376 325.659C303.376 326.363 303.238 327.059 302.968 327.709C302.699 328.358 302.304 328.948 301.806 329.444C301.309 329.941 300.718 330.334 300.069 330.6C299.419 330.867 298.724 331.003 298.022 331Z" fill="white"/>
<path d="M5.35484 37.6286C4.29575 37.6286 3.26045 37.314 2.37985 36.7245C1.49925 36.1349 0.81291 35.297 0.407615 34.3167C0.00232017 33.3363 -0.103724 32.2576 0.102894 31.2169C0.309512 30.1762 0.819511 29.2202 1.5684 28.4699C2.31729 27.7196 3.27143 27.2086 4.31016 27.0016C5.3489 26.7946 6.42558 26.9008 7.40405 27.3069C8.38252 27.713 9.21883 28.4006 9.80723 29.2829C10.3956 30.1652 10.7097 31.2025 10.7097 32.2636C10.7033 33.6845 10.1371 35.0454 9.13421 36.0501C8.13137 37.0549 6.77306 37.6222 5.35484 37.6286Z" fill="#516177"/>
<path d="M41.9378 37.6286C40.8788 37.6286 39.8435 37.314 38.9629 36.7245C38.0823 36.1349 37.3959 35.297 36.9906 34.3167C36.5853 33.3363 36.4793 32.2576 36.6859 31.2169C36.8925 30.1762 37.4025 29.2202 38.1514 28.4699C38.9003 27.7196 39.8544 27.2086 40.8932 27.0016C41.9319 26.7946 43.0086 26.9008 43.9871 27.3069C44.9655 27.713 45.8018 28.4006 46.3902 29.2829C46.9786 30.1652 47.2927 31.2025 47.2927 32.2636C47.2927 33.6865 46.7285 35.0511 45.7243 36.0572C44.7201 37.0634 43.358 37.6286 41.9378 37.6286Z" fill="#516177"/>
<path d="M78.5216 37.6286C77.4625 37.6286 76.4272 37.314 75.5466 36.7245C74.666 36.1349 73.9797 35.297 73.5744 34.3167C73.1691 33.3363 73.063 32.2576 73.2696 31.2169C73.4763 30.1762 73.9863 29.2202 74.7351 28.4699C75.484 27.7196 76.4382 27.2086 77.4769 27.0016C78.5156 26.7946 79.5923 26.9008 80.5708 27.3069C81.5493 27.713 82.3856 28.4006 82.974 29.2829C83.5624 30.1652 83.8764 31.2025 83.8764 32.2636C83.8764 32.9681 83.7379 33.6658 83.4688 34.3167C83.1997 34.9676 82.8053 35.559 82.308 36.0572C81.8108 36.5554 81.2205 36.9506 80.5708 37.2202C79.9211 37.4899 79.2248 37.6286 78.5216 37.6286Z" fill="#516177"/>
<path d="M115.08 37.6286C114.021 37.6286 112.986 37.314 112.105 36.7245C111.225 36.1349 110.538 35.297 110.133 34.3167C109.728 33.3363 109.622 32.2576 109.828 31.2169C110.035 30.1762 110.545 29.2202 111.294 28.4699C112.043 27.7196 112.997 27.2086 114.036 27.0016C115.074 26.7946 116.151 26.9008 117.13 27.3069C118.108 27.713 118.944 28.4006 119.533 29.2829C120.121 30.1652 120.435 31.2025 120.435 32.2636C120.435 33.6865 119.871 35.0511 118.867 36.0572C117.863 37.0634 116.501 37.6286 115.08 37.6286Z" fill="white"/>
<path d="M5.35479 74.2818C4.29466 74.2818 3.2584 73.9665 2.37728 73.3759C1.49616 72.7853 0.809844 71.9459 0.405274 70.9641C0.000703922 69.9824 -0.103909 68.9024 0.104689 67.861C0.313287 66.8196 0.825709 65.8637 1.57703 65.1144C2.32836 64.3651 3.28477 63.856 4.32511 63.6518C5.36544 63.4475 6.44288 63.5572 7.42092 63.9671C8.39895 64.3769 9.23357 65.0683 9.81903 65.9538C10.4045 66.8393 10.7144 67.879 10.7096 68.9411C10.7032 70.3598 10.1362 71.7181 9.13265 72.719C8.12912 73.7199 6.77077 74.2818 5.35479 74.2818Z" fill="#516177"/>
<path d="M41.9378 74.2818C40.8777 74.2817 39.8414 73.9665 38.9603 73.3759C38.0792 72.7853 37.3929 71.9459 36.9883 70.9641C36.5837 69.9824 36.4791 68.9024 36.6877 67.861C36.8963 66.8196 37.4087 65.8637 38.16 65.1144C38.9114 64.3651 39.8678 63.856 40.9081 63.6518C41.9485 63.4475 43.0259 63.5572 44.0039 63.9671C44.982 64.3769 45.8166 65.0683 46.402 65.9538C46.9875 66.8393 47.2975 67.879 47.2926 68.9411C47.2926 69.6445 47.154 70.341 46.8846 70.9905C46.6152 71.6401 46.2203 72.2299 45.7228 72.7262C45.2252 73.2224 44.6347 73.6153 43.9852 73.8822C43.3356 74.1492 42.6399 74.285 41.9378 74.2818Z" fill="#516177"/>
<path d="M78.5215 74.2818C77.4614 74.2817 76.4251 73.9665 75.544 73.3759C74.6629 72.7853 73.9766 71.9459 73.572 70.9641C73.1675 69.9824 73.0628 68.9024 73.2714 67.861C73.48 66.8196 73.9925 65.8637 74.7438 65.1144C75.4951 64.3651 76.4515 63.856 77.4919 63.6518C78.5322 63.4475 79.6096 63.5572 80.5877 63.9671C81.5657 64.3769 82.4003 65.0683 82.9858 65.9538C83.5712 66.8393 83.8812 67.879 83.8764 68.9411C83.8764 69.6445 83.7377 70.341 83.4683 70.9905C83.1989 71.6401 82.8041 72.2299 82.3065 72.7262C81.8089 73.2224 81.2184 73.6153 80.5689 73.8822C79.9194 74.1492 79.2236 74.285 78.5215 74.2818Z" fill="#516177"/>
<path d="M115.08 74.2818C114.02 74.2817 112.984 73.9665 112.103 73.3759C111.222 72.7853 110.535 71.9459 110.131 70.9641C109.726 69.9824 109.622 68.9024 109.83 67.861C110.039 66.8196 110.551 65.8637 111.303 65.1144C112.054 64.3651 113.01 63.856 114.051 63.6518C115.091 63.4475 116.168 63.5572 117.147 63.9671C118.125 64.3769 118.959 65.0683 119.545 65.9538C120.13 66.8393 120.44 67.879 120.435 68.9411C120.435 69.6445 120.297 70.341 120.027 70.9905C119.758 71.6401 119.363 72.2299 118.865 72.7262C118.368 73.2224 117.777 73.6153 117.128 73.8822C116.478 74.1492 115.782 74.285 115.08 74.2818Z" fill="white"/>
<path d="M5.35484 110.959C4.29575 110.959 3.26045 110.645 2.37985 110.055C1.49925 109.466 0.81291 108.628 0.407615 107.647C0.00232017 106.667 -0.103724 105.588 0.102894 104.548C0.309512 103.507 0.819511 102.551 1.5684 101.801C2.31729 101.05 3.27143 100.539 4.31016 100.332C5.3489 100.125 6.42558 100.231 7.40405 100.638C8.38252 101.044 9.21883 101.731 9.80723 102.614C10.3956 103.496 10.7097 104.533 10.7097 105.594C10.7033 107.015 10.1371 108.376 9.13421 109.381C8.13137 110.386 6.77306 110.953 5.35484 110.959Z" fill="#516177"/>
<path d="M41.9378 110.959C40.8788 110.959 39.8435 110.645 38.9629 110.055C38.0823 109.466 37.3959 108.628 36.9906 107.647C36.5853 106.667 36.4793 105.588 36.6859 104.548C36.8925 103.507 37.4025 102.551 38.1514 101.801C38.9003 101.05 39.8544 100.539 40.8932 100.332C41.9319 100.125 43.0086 100.231 43.9871 100.638C44.9655 101.044 45.8018 101.731 46.3902 102.614C46.9786 103.496 47.2927 104.533 47.2927 105.594C47.2927 107.017 46.7285 108.382 45.7243 109.388C44.7201 110.394 43.358 110.959 41.9378 110.959Z" fill="#516177"/>
<path d="M78.5216 110.959C77.4625 110.959 76.4272 110.645 75.5466 110.055C74.666 109.466 73.9797 108.628 73.5744 107.647C73.1691 106.667 73.063 105.588 73.2696 104.548C73.4763 103.507 73.9863 102.551 74.7351 101.801C75.484 101.05 76.4382 100.539 77.4769 100.332C78.5156 100.125 79.5923 100.231 80.5708 100.638C81.5493 101.044 82.3856 101.731 82.974 102.614C83.5624 103.496 83.8764 104.533 83.8764 105.594C83.8764 106.299 83.7379 106.996 83.4688 107.647C83.1997 108.298 82.8053 108.89 82.308 109.388C81.8108 109.886 81.2205 110.281 80.5708 110.551C79.9211 110.82 79.2248 110.959 78.5216 110.959Z" fill="#516177"/>
<path d="M115.08 110.959C114.021 110.959 112.986 110.645 112.105 110.055C111.225 109.466 110.538 108.628 110.133 107.647C109.728 106.667 109.622 105.588 109.828 104.548C110.035 103.507 110.545 102.551 111.294 101.801C112.043 101.05 112.997 100.539 114.036 100.332C115.074 100.125 116.151 100.231 117.13 100.638C118.108 101.044 118.944 101.731 119.533 102.614C120.121 103.496 120.435 104.533 120.435 105.594C120.435 107.017 119.871 108.382 118.867 109.388C117.863 110.394 116.501 110.959 115.08 110.959Z" fill="white"/>
<path d="M5.35484 147.612C4.29575 147.612 3.26045 147.298 2.37985 146.708C1.49925 146.119 0.81291 145.281 0.407615 144.3C0.00232017 143.32 -0.103724 142.241 0.102894 141.201C0.309512 140.16 0.819511 139.204 1.5684 138.454C2.31729 137.703 3.27143 137.192 4.31016 136.985C5.3489 136.778 6.42558 136.885 7.40405 137.291C8.38252 137.697 9.21883 138.384 9.80723 139.267C10.3956 140.149 10.7097 141.186 10.7097 142.247C10.7033 143.668 10.1371 145.029 9.13421 146.034C8.13137 147.039 6.77306 147.606 5.35484 147.612Z" fill="#516177"/>
<path d="M41.9378 147.612C40.8788 147.612 39.8435 147.298 38.9629 146.708C38.0823 146.119 37.3959 145.281 36.9906 144.3C36.5853 143.32 36.4793 142.241 36.6859 141.201C36.8925 140.16 37.4025 139.204 38.1514 138.454C38.9003 137.703 39.8544 137.192 40.8932 136.985C41.9319 136.778 43.0086 136.885 43.9871 137.291C44.9655 137.697 45.8018 138.384 46.3902 139.267C46.9786 140.149 47.2927 141.186 47.2927 142.247C47.2927 143.67 46.7285 145.035 45.7243 146.041C44.7201 147.047 43.358 147.612 41.9378 147.612Z" fill="#516177"/>
<path d="M78.5216 147.612C77.4625 147.612 76.4272 147.298 75.5466 146.708C74.666 146.119 73.9797 145.281 73.5744 144.3C73.1691 143.32 73.063 142.241 73.2696 141.201C73.4763 140.16 73.9863 139.204 74.7351 138.454C75.484 137.703 76.4382 137.192 77.4769 136.985C78.5156 136.778 79.5923 136.885 80.5708 137.291C81.5493 137.697 82.3856 138.384 82.974 139.267C83.5624 140.149 83.8764 141.186 83.8764 142.247C83.8764 142.952 83.7379 143.65 83.4688 144.3C83.1997 144.951 82.8053 145.543 82.308 146.041C81.8108 146.539 81.2205 146.934 80.5708 147.204C79.9211 147.474 79.2248 147.612 78.5216 147.612Z" fill="#516177"/>
<path d="M115.08 147.612C114.021 147.612 112.986 147.298 112.105 146.708C111.225 146.119 110.538 145.281 110.133 144.3C109.728 143.32 109.622 142.241 109.828 141.201C110.035 140.16 110.545 139.204 111.294 138.454C112.043 137.703 112.997 137.192 114.036 136.985C115.074 136.778 116.151 136.885 117.13 137.291C118.108 137.697 118.944 138.384 119.533 139.267C120.121 140.149 120.435 141.186 120.435 142.247C120.435 143.67 119.871 145.035 118.867 146.041C117.863 147.047 116.501 147.612 115.08 147.612Z" fill="white"/>
<path d="M5.35484 184.266C4.29575 184.266 3.26045 183.951 2.37985 183.361C1.49925 182.772 0.81291 181.934 0.407615 180.954C0.00232017 179.973 -0.103724 178.895 0.102894 177.854C0.309512 176.813 0.819511 175.857 1.5684 175.107C2.31729 174.356 3.27143 173.846 4.31016 173.638C5.3489 173.431 6.42558 173.538 7.40405 173.944C8.38252 174.35 9.21883 175.038 9.80723 175.92C10.3956 176.802 10.7097 177.839 10.7097 178.9C10.7097 180.323 10.1455 181.688 9.14128 182.694C8.13706 183.7 6.77503 184.266 5.35484 184.266Z" fill="#516177"/>
<path d="M41.9378 184.266C40.8788 184.266 39.8435 183.951 38.9629 183.361C38.0823 182.772 37.3959 181.934 36.9906 180.954C36.5853 179.973 36.4793 178.895 36.6859 177.854C36.8925 176.813 37.4025 175.857 38.1514 175.107C38.9003 174.356 39.8544 173.846 40.8932 173.638C41.9319 173.431 43.0086 173.538 43.9871 173.944C44.9655 174.35 45.8018 175.038 46.3902 175.92C46.9786 176.802 47.2927 177.839 47.2927 178.9C47.2959 179.606 47.1596 180.305 46.8916 180.957C46.6237 181.61 46.2294 182.203 45.7315 182.701C45.2336 183.2 44.642 183.595 43.9909 183.864C43.3397 184.132 42.642 184.269 41.9378 184.266Z" fill="#516177"/>
<path d="M78.5216 184.266C77.4625 184.266 76.4272 183.951 75.5466 183.361C74.666 182.772 73.9797 181.934 73.5744 180.954C73.1691 179.973 73.063 178.895 73.2696 177.854C73.4763 176.813 73.9863 175.857 74.7351 175.107C75.484 174.356 76.4382 173.846 77.4769 173.638C78.5156 173.431 79.5923 173.538 80.5708 173.944C81.5493 174.35 82.3856 175.038 82.974 175.92C83.5624 176.802 83.8764 177.839 83.8764 178.9C83.8796 179.606 83.7433 180.305 83.4754 180.957C83.2074 181.61 82.8131 182.203 82.3152 182.701C81.8173 183.2 81.2257 183.595 80.5746 183.864C79.9235 184.132 79.2257 184.269 78.5216 184.266Z" fill="#516177"/>
<path d="M115.08 184.266C114.021 184.266 112.986 183.951 112.105 183.361C111.225 182.772 110.538 181.934 110.133 180.954C109.728 179.973 109.622 178.895 109.828 177.854C110.035 176.813 110.545 175.857 111.294 175.107C112.043 174.356 112.997 173.846 114.036 173.638C115.074 173.431 116.151 173.538 117.13 173.944C118.108 174.35 118.944 175.038 119.533 175.92C120.121 176.802 120.435 177.839 120.435 178.9C120.438 179.606 120.302 180.305 120.034 180.957C119.766 181.61 119.372 182.203 118.874 182.701C118.376 183.2 117.785 183.595 117.133 183.864C116.482 184.132 115.785 184.269 115.08 184.266Z" fill="white"/>
<path d="M5.35484 221.041C4.29575 221.041 3.26045 220.726 2.37985 220.136C1.49925 219.547 0.81291 218.709 0.407615 217.729C0.00232017 216.748 -0.103724 215.67 0.102894 214.629C0.309512 213.588 0.819511 212.632 1.5684 211.882C2.31729 211.132 3.27143 210.621 4.31016 210.414C5.3489 210.207 6.42558 210.313 7.40405 210.719C8.38252 211.125 9.21883 211.813 9.80723 212.695C10.3956 213.577 10.7097 214.614 10.7097 215.676C10.7033 217.096 10.1371 218.457 9.13421 219.462C8.13137 220.467 6.77306 221.034 5.35484 221.041Z" fill="#516177"/>
<path d="M41.9378 221.041C40.8788 221.041 39.8435 220.726 38.9629 220.136C38.0823 219.547 37.3959 218.709 36.9906 217.729C36.5853 216.748 36.4793 215.67 36.6859 214.629C36.8925 213.588 37.4025 212.632 38.1514 211.882C38.9003 211.132 39.8544 210.621 40.8932 210.414C41.9319 210.207 43.0086 210.313 43.9871 210.719C44.9655 211.125 45.8018 211.813 46.3902 212.695C46.9786 213.577 47.2927 214.614 47.2927 215.676C47.2927 217.098 46.7285 218.463 45.7243 219.469C44.7201 220.475 43.358 221.041 41.9378 221.041Z" fill="#516177"/>
<path d="M78.5216 221.041C77.4625 221.041 76.4272 220.726 75.5466 220.136C74.666 219.547 73.9797 218.709 73.5744 217.729C73.1691 216.748 73.063 215.67 73.2696 214.629C73.4763 213.588 73.9863 212.632 74.7351 211.882C75.484 211.132 76.4382 210.621 77.4769 210.414C78.5156 210.207 79.5923 210.313 80.5708 210.719C81.5493 211.125 82.3856 211.813 82.974 212.695C83.5624 213.577 83.8764 214.614 83.8764 215.676C83.8764 216.38 83.7379 217.078 83.4688 217.729C83.1997 218.38 82.8053 218.971 82.308 219.469C81.8108 219.967 81.2205 220.363 80.5708 220.632C79.9211 220.902 79.2248 221.041 78.5216 221.041Z" fill="#516177"/>
<path d="M115.08 221.041C114.021 221.041 112.986 220.726 112.105 220.136C111.225 219.547 110.538 218.709 110.133 217.729C109.728 216.748 109.622 215.67 109.828 214.629C110.035 213.588 110.545 212.632 111.294 211.882C112.043 211.132 112.997 210.621 114.036 210.414C115.074 210.207 116.151 210.313 117.13 210.719C118.108 211.125 118.944 211.813 119.533 212.695C120.121 213.577 120.435 214.614 120.435 215.676C120.435 217.098 119.871 218.463 118.867 219.469C117.863 220.475 116.501 221.041 115.08 221.041Z" fill="white"/>
<path d="M5.35484 257.694C4.29575 257.694 3.26045 257.379 2.37985 256.79C1.49925 256.2 0.81291 255.362 0.407615 254.382C0.00232017 253.401 -0.103724 252.323 0.102894 251.282C0.309512 250.241 0.819511 249.285 1.5684 248.535C2.31729 247.785 3.27143 247.274 4.31016 247.067C5.3489 246.86 6.42558 246.966 7.40405 247.372C8.38252 247.778 9.21883 248.466 9.80723 249.348C10.3956 250.23 10.7097 251.268 10.7097 252.329C10.7033 253.75 10.1371 255.111 9.13421 256.115C8.13137 257.12 6.77306 257.687 5.35484 257.694Z" fill="#516177"/>
<path d="M41.9378 257.694C40.8788 257.694 39.8435 257.379 38.9629 256.79C38.0823 256.2 37.3959 255.362 36.9906 254.382C36.5853 253.401 36.4793 252.323 36.6859 251.282C36.8925 250.241 37.4025 249.285 38.1514 248.535C38.9003 247.785 39.8544 247.274 40.8932 247.067C41.9319 246.86 43.0086 246.966 43.9871 247.372C44.9655 247.778 45.8018 248.466 46.3902 249.348C46.9786 250.23 47.2927 251.268 47.2927 252.329C47.2927 253.752 46.7285 255.116 45.7243 256.122C44.7201 257.128 43.358 257.694 41.9378 257.694Z" fill="#516177"/>
<path d="M78.5216 257.694C77.4625 257.694 76.4272 257.379 75.5466 256.79C74.666 256.2 73.9797 255.362 73.5744 254.382C73.1691 253.401 73.063 252.323 73.2696 251.282C73.4763 250.241 73.9863 249.285 74.7351 248.535C75.484 247.785 76.4382 247.274 77.4769 247.067C78.5156 246.86 79.5923 246.966 80.5708 247.372C81.5493 247.778 82.3856 248.466 82.974 249.348C83.5624 250.23 83.8764 251.268 83.8764 252.329C83.8764 253.033 83.7379 253.731 83.4688 254.382C83.1997 255.033 82.8053 255.624 82.308 256.122C81.8108 256.621 81.2205 257.016 80.5708 257.285C79.9211 257.555 79.2248 257.694 78.5216 257.694Z" fill="#516177"/>
<path d="M115.08 257.694C114.021 257.694 112.986 257.379 112.105 256.79C111.225 256.2 110.538 255.362 110.133 254.382C109.728 253.401 109.622 252.323 109.828 251.282C110.035 250.241 110.545 249.285 111.294 248.535C112.043 247.785 112.997 247.274 114.036 247.067C115.074 246.86 116.151 246.966 117.13 247.372C118.108 247.778 118.944 248.466 119.533 249.348C120.121 250.23 120.435 251.268 120.435 252.329C120.435 253.752 119.871 255.116 118.867 256.122C117.863 257.128 116.501 257.694 115.08 257.694Z" fill="white"/>
<path d="M5.35484 294.347C4.29575 294.347 3.26045 294.032 2.37985 293.443C1.49925 292.853 0.81291 292.015 0.407615 291.035C0.00232017 290.055 -0.103724 288.976 0.102894 287.935C0.309512 286.894 0.819511 285.938 1.5684 285.188C2.31729 284.438 3.27143 283.927 4.31016 283.72C5.3489 283.513 6.42558 283.619 7.40405 284.025C8.38252 284.431 9.21883 285.119 9.80723 286.001C10.3956 286.883 10.7097 287.921 10.7097 288.982C10.7033 290.403 10.1371 291.764 9.13421 292.768C8.13137 293.773 6.77306 294.34 5.35484 294.347Z" fill="#516177"/>
<path d="M41.9378 294.347C40.8788 294.347 39.8435 294.032 38.9629 293.443C38.0823 292.853 37.3959 292.015 36.9906 291.035C36.5853 290.055 36.4793 288.976 36.6859 287.935C36.8925 286.894 37.4025 285.938 38.1514 285.188C38.9003 284.438 39.8544 283.927 40.8932 283.72C41.9319 283.513 43.0086 283.619 43.9871 284.025C44.9655 284.431 45.8018 285.119 46.3902 286.001C46.9786 286.883 47.2927 287.921 47.2927 288.982C47.2927 290.405 46.7285 291.769 45.7243 292.775C44.7201 293.782 43.358 294.347 41.9378 294.347Z" fill="#516177"/>
<path d="M78.5216 294.347C77.4625 294.347 76.4272 294.032 75.5466 293.443C74.666 292.853 73.9797 292.015 73.5744 291.035C73.1691 290.055 73.063 288.976 73.2696 287.935C73.4763 286.894 73.9863 285.938 74.7351 285.188C75.484 284.438 76.4382 283.927 77.4769 283.72C78.5156 283.513 79.5923 283.619 80.5708 284.025C81.5493 284.431 82.3856 285.119 82.974 286.001C83.5624 286.883 83.8764 287.921 83.8764 288.982C83.8764 289.686 83.7379 290.384 83.4688 291.035C83.1997 291.686 82.8053 292.277 82.308 292.775C81.8108 293.274 81.2205 293.669 80.5708 293.938C79.9211 294.208 79.2248 294.347 78.5216 294.347Z" fill="#516177"/>
<path d="M115.08 294.347C114.021 294.347 112.986 294.032 112.105 293.443C111.225 292.853 110.538 292.015 110.133 291.035C109.728 290.055 109.622 288.976 109.828 287.935C110.035 286.894 110.545 285.938 111.294 285.188C112.043 284.438 112.997 283.927 114.036 283.72C115.074 283.513 116.151 283.619 117.13 284.025C118.108 284.431 118.944 285.119 119.533 286.001C120.121 286.883 120.435 287.921 120.435 288.982C120.435 290.405 119.871 291.769 118.867 292.775C117.863 293.782 116.501 294.347 115.08 294.347Z" fill="white"/>
<path d="M5.35479 331C4.29466 331 3.2584 330.685 2.37728 330.094C1.49616 329.503 0.809844 328.664 0.405274 327.682C0.000703922 326.701 -0.103909 325.621 0.104689 324.579C0.313287 323.538 0.825709 322.582 1.57703 321.833C2.32836 321.083 3.28477 320.574 4.32511 320.37C5.36544 320.166 6.44288 320.276 7.42092 320.685C8.39895 321.095 9.23357 321.787 9.81903 322.672C10.4045 323.558 10.7144 324.597 10.7096 325.659C10.7032 327.078 10.1362 328.436 9.13265 329.437C8.12912 330.438 6.77077 331 5.35479 331Z" fill="#516177"/>
<path d="M41.9378 331C40.8777 331 39.8414 330.685 38.9603 330.094C38.0792 329.503 37.3929 328.664 36.9883 327.682C36.5837 326.701 36.4791 325.621 36.6877 324.579C36.8963 323.538 37.4087 322.582 38.16 321.833C38.9114 321.083 39.8678 320.574 40.9081 320.37C41.9485 320.166 43.0259 320.276 44.0039 320.685C44.982 321.095 45.8166 321.787 46.402 322.672C46.9875 323.558 47.2975 324.597 47.2926 325.659C47.2926 326.363 47.154 327.059 46.8846 327.709C46.6152 328.358 46.2203 328.948 45.7228 329.444C45.2252 329.941 44.6347 330.334 43.9852 330.6C43.3356 330.867 42.6399 331.003 41.9378 331Z" fill="#516177"/>
<path d="M78.5215 331C77.4614 331 76.4251 330.685 75.544 330.094C74.6629 329.503 73.9766 328.664 73.572 327.682C73.1675 326.701 73.0628 325.621 73.2714 324.579C73.48 323.538 73.9925 322.582 74.7438 321.833C75.4951 321.083 76.4515 320.574 77.4919 320.37C78.5322 320.166 79.6096 320.276 80.5877 320.685C81.5657 321.095 82.4003 321.787 82.9858 322.672C83.5712 323.558 83.8812 324.597 83.8764 325.659C83.8764 326.363 83.7377 327.059 83.4683 327.709C83.1989 328.358 82.8041 328.948 82.3065 329.444C81.8089 329.941 81.2184 330.334 80.5689 330.6C79.9194 330.867 79.2236 331.003 78.5215 331Z" fill="#516177"/>
<path d="M115.08 331C114.02 331 112.984 330.685 112.103 330.094C111.222 329.503 110.535 328.664 110.131 327.682C109.726 326.701 109.622 325.621 109.83 324.579C110.039 323.538 110.551 322.582 111.303 321.833C112.054 321.083 113.01 320.574 114.051 320.37C115.091 320.166 116.168 320.276 117.147 320.685C118.125 321.095 118.959 321.787 119.545 322.672C120.13 323.558 120.44 324.597 120.435 325.659C120.435 326.363 120.297 327.059 120.027 327.709C119.758 328.358 119.363 328.948 118.865 329.444C118.368 329.941 117.777 330.334 117.128 330.6C116.478 330.867 115.782 331.003 115.08 331Z" fill="white"/>
</svg>
