<svg width="27" height="20" viewBox="0 0 27 20" fill="none" xmlns="http://www.w3.org/2000/svg">
<path d="M25.9476 1.63115C24.973 0.472587 23.1736 0 19.7371 0H7.26265C3.74751 0 1.91761 0.503071 0.946655 1.73654C0 2.93917 0 4.71115 0 7.16362V11.838C0 16.5892 1.1232 19.0016 7.26265 19.0016H19.7372C22.7173 19.0016 24.3686 18.5845 25.437 17.5621C26.5326 16.5136 27 14.8017 27 11.838V7.16362C27 4.57728 26.9268 2.79485 25.9476 1.63115ZM17.3341 10.1462L11.6695 13.1067C11.5428 13.1729 11.4044 13.2057 11.2661 13.2057C11.1095 13.2057 10.9532 13.1635 10.8148 13.0798C10.5542 12.9219 10.3951 12.6394 10.3951 12.3347V6.43271C10.3951 6.12856 10.5538 5.84637 10.8138 5.68838C11.074 5.53038 11.3976 5.51958 11.6675 5.65981L17.3321 8.60124C17.6203 8.75087 17.8013 9.0484 17.8017 9.37301C17.8021 9.69788 17.6219 9.99584 17.3341 10.1462Z" fill="#516177"/>
</svg>
